<svg width="132" height="133" viewBox="0 0 132 133" fill="none" xmlns="http://www.w3.org/2000/svg">
<path d="M40.9715 118.141L7.30457 69.7507L19.5807 25.171L66 2L130 47.8776L94.291 116.509L40.9715 118.141Z" stroke="#E2A97E" stroke-width="1.52842" stroke-miterlimit="10"/>
<path d="M66 130.542L7.30457 69.7507" stroke="#E2A97E" stroke-width="1.52842" stroke-miterlimit="10"/>
<path d="M19.5806 25.171L14.6809 105.085L92.9693 117.164" stroke="#E2A97E" stroke-width="1.52842" stroke-miterlimit="10"/>
<path d="M2 47.8776L94.4874 2L117.325 105.085L114.283 27.5702" stroke="#E2A97E" stroke-width="1.52842" stroke-miterlimit="10"/>
<path d="M37.5186 2L102.888 28.4394" stroke="#E2A97E" stroke-width="1.52842" stroke-miterlimit="10"/>
<path d="M40.9716 118.141L117.325 105.085" stroke="#E2A97E" stroke-width="1.52842" stroke-miterlimit="10"/>
<path d="M66 130.542L14.6809 105.085L2 47.8776L37.5185 2H94.4874L130 47.8776L117.325 105.085L66 130.542Z" stroke="#E2A97E" stroke-width="3.04763" stroke-miterlimit="10"/>
<path d="M98.7621 51.8128C98.3394 51.1995 96.9582 51.0745 95.0114 51.0745C94.8744 51.0745 94.7613 51.0745 94.6661 51.0745C89.6056 51.2769 84.4797 52.5927 79.8419 54.8669C77.4367 56.0457 74.9838 57.6234 72.3583 59.6833C72.3167 59.5523 72.269 59.4213 72.2274 59.2903L71.9892 58.5938C71.8404 58.177 71.7035 57.7484 71.5725 57.3257C71.2034 56.1707 70.8223 54.9741 70.1734 53.8905C69.1613 52.2533 67.9944 51.0328 66.6966 50.2708C64.9879 49.2349 63.5055 49.3361 62.0707 49.4373C61.0646 49.5087 60.112 49.5742 59.1059 49.2766C56.5042 48.2942 54.2836 46.4844 52.1343 44.7341C51.5509 44.2578 50.9615 43.7815 50.384 43.329C50.1756 43.1564 49.9673 42.9956 49.7529 42.8349C49.4434 42.6027 49.1517 42.3824 48.8837 42.1264C48.6873 41.9478 48.4372 41.9002 48.2289 42.0074C48.0562 42.0907 47.9431 42.2574 47.9133 42.4479C47.8181 42.6741 47.8895 42.954 48.1098 43.1623C49.3957 44.6388 50.765 46.0498 52.1701 47.3417L52.5213 47.6989C53.9621 49.1754 55.4504 50.6994 56.5578 52.4855C56.5995 52.6284 56.6828 52.7474 56.7721 52.8487C57.427 54.0036 57.8437 55.2717 58.189 56.4684C58.713 58.2425 58.9451 60.1238 59.1714 61.9396C59.2369 62.4695 59.3023 62.9934 59.3738 63.5114C59.737 66.5774 60.2787 70.1733 61.5349 73.5668C62.7316 77.1984 64.8867 80.2049 67.6194 82.0327C68.9232 82.8602 70.3282 83.527 71.6856 84.17C72.9418 84.7653 74.2396 85.3845 75.4303 86.1168C77.6629 87.5456 79.4251 89.4031 80.5146 91.4689C81.1457 92.8025 81.6755 94.3266 82.1399 96.1246C82.2114 96.4163 82.2828 96.714 82.3543 97.0057C82.4436 97.3748 82.5328 97.738 82.6222 98.1249C82.646 98.2142 82.6638 98.3333 82.6757 98.4524C82.7055 98.7024 82.7412 98.9882 82.902 99.2382L82.9853 99.3275C83.0746 99.399 83.1818 99.4407 83.2949 99.4466L83.6402 101.012L83.6759 99.399C83.6938 99.393 83.7176 99.3811 83.7355 99.3752C83.9855 99.2502 84.1105 98.9703 84.1522 98.8513C84.4856 98.1488 84.7535 97.4165 84.9619 96.6723L85.1345 96.0472C85.3846 95.1363 85.6465 94.1897 85.8132 93.2252C86.0871 91.4511 86.1288 89.6412 85.9382 87.8373C85.718 86.1168 85.4203 84.7534 84.9857 83.527C83.7593 80.3062 81.8661 77.4247 80.1693 75.0314L79.9431 74.7158C79.4132 73.9716 78.8715 73.1977 78.4011 72.4059C78.3595 72.3344 78.3237 72.263 78.2821 72.1915C78.806 72.1737 79.2822 72.0725 79.7228 71.8939C80.2408 71.6557 80.6158 71.239 80.7587 70.7448C81.5565 70.7448 82.3066 70.6377 83.0032 70.4234C84.2356 70.0304 85.4382 69.1791 85.3965 67.911C85.6406 67.8872 85.8668 67.8515 86.0811 67.8157C86.3907 67.7621 86.7956 67.6788 87.2063 67.5538C87.5874 67.4347 87.9505 67.2978 88.2839 67.143C88.4447 67.0656 88.6114 66.9763 88.8078 66.8632C89.0043 66.7501 89.1769 66.6369 89.3198 66.5238C89.4806 66.3988 89.6294 66.2678 89.7723 66.1249C89.9211 65.9702 90.0521 65.8154 90.1474 65.6546C90.2724 65.4522 90.3677 65.2617 90.4331 65.0712C90.5046 64.8628 90.5462 64.6425 90.5522 64.4282C90.5582 64.2615 90.5463 64.0888 90.5165 63.9102C91.5941 63.5888 92.4216 63.1065 93.0467 62.4338C93.6004 61.7908 93.8504 60.9573 93.7135 60.2072C93.6837 60.0643 93.654 59.9095 93.6004 59.7488C93.7492 59.6654 93.8921 59.5761 94.035 59.4808C94.1898 59.3796 94.3446 59.2725 94.4934 59.1594C94.6482 59.0403 94.797 58.9093 94.934 58.7843C95.059 58.6652 95.2138 58.5104 95.3507 58.3199C95.4579 58.1711 95.5591 58.0044 95.6662 57.8139C95.7675 57.6353 95.8508 57.4388 95.9163 57.2423C96.0651 56.7899 96.1128 56.3612 96.0473 55.9623C96.0175 55.7778 95.9639 55.5932 95.8865 55.3908C96.0294 55.3194 96.1604 55.242 96.2914 55.1586L96.4343 55.0693C97.0177 54.7061 97.6785 54.2954 98.1131 53.6405C98.2203 53.4559 98.3453 53.2237 98.4227 52.9677C98.5894 52.8665 98.7204 52.7415 98.8097 52.5927L98.8454 52.5212C98.9407 52.2652 98.9109 52.0152 98.768 51.8008L98.7621 51.8128ZM94.3505 57.7305C94.2731 57.8258 94.1838 57.9091 94.1005 57.9925C93.9755 58.1115 93.8445 58.2187 93.6956 58.3259C93.398 58.5402 93.1539 58.695 92.9217 58.82C92.7193 58.9272 92.4871 59.0284 92.2013 59.1415C92.0644 59.1951 91.9215 59.2427 91.7786 59.2844C91.6417 59.3261 91.5107 59.3618 91.3738 59.3915C90.8737 59.5106 90.3676 59.6059 89.8795 59.6654C89.552 59.7011 89.2186 59.7309 88.8912 59.7607C88.2363 59.8142 87.5695 59.8142 86.8372 59.8023C86.4562 59.7964 86.0752 59.7726 85.7061 59.7428C85.3548 59.7071 85.0035 59.6714 84.6523 59.6356C84.3249 59.5999 84.0034 59.5642 83.6819 59.5166C83.3187 59.463 82.9556 59.3975 82.5984 59.3261L82.1042 59.2248C81.9435 59.1951 81.7887 59.1653 81.6279 59.1355L81.5327 59.1177C81.2171 59.0641 80.9016 59.0046 80.5861 58.9331C80.3777 58.8855 80.1753 58.8319 79.9669 58.7843C81.0445 58.1175 82.1816 57.5102 83.3723 56.9625C83.4318 56.9685 83.4973 56.9685 83.5628 56.9685C83.7474 56.9744 83.926 56.9863 84.1105 56.9982L84.8071 57.0518C85.337 57.0935 85.8847 57.1352 86.4264 57.1471C88.6352 57.2602 90.8796 57.0161 93.0943 56.4208C93.7314 56.2541 94.3029 56.0695 94.8328 55.8611C94.8506 55.9147 94.8685 55.9623 94.8804 56.01C94.8923 56.0695 94.9042 56.129 94.9102 56.1767C94.9161 56.2302 94.9161 56.2898 94.9221 56.3255C94.9221 56.3969 94.9161 56.4624 94.9102 56.516C94.8923 56.6113 94.8744 56.7065 94.8566 56.7839C94.8268 56.8851 94.7911 56.9863 94.7494 57.0697C94.6958 57.1828 94.6363 57.29 94.5768 57.3912C94.541 57.4448 94.5113 57.4983 94.4755 57.5519C94.4339 57.6115 94.3922 57.671 94.3565 57.7186L94.3505 57.7305ZM89.0579 65.1902C88.9924 65.2676 88.9209 65.345 88.8555 65.4046C88.7542 65.4939 88.653 65.5832 88.5518 65.6546C88.3792 65.7737 88.2006 65.8868 88.0101 65.988C87.8077 66.0952 87.5993 66.1904 87.379 66.2797C87.0813 66.3928 86.7717 66.4881 86.4741 66.5655C86.2835 66.6072 86.093 66.6488 85.8728 66.6846C85.7894 66.6965 85.7061 66.7143 85.6227 66.7262C85.5453 66.7381 85.462 66.7441 85.3846 66.756L85.3489 66.762C85.1167 66.7858 84.8904 66.8096 84.6583 66.8215C84.438 66.8334 84.2177 66.8394 84.0034 66.8394C83.6878 66.8334 83.408 66.8215 83.152 66.7917C82.8663 66.762 82.5864 66.7262 82.2828 66.6846L82.2352 66.6786C81.9792 66.6429 81.7232 66.5953 81.4672 66.5536L81.1755 66.506C80.8123 66.4464 80.4551 66.3809 80.0979 66.3095C79.7347 66.2381 79.3835 66.1607 79.0322 66.0833L77.9487 65.8511C77.9427 65.8511 77.9427 65.8511 77.9427 65.8511C77.901 65.8451 77.8594 65.8392 77.8236 65.8392C77.7879 65.8213 77.7522 65.8094 77.7165 65.8035C77.4307 65.7201 77.1449 65.6487 76.8592 65.5772C76.3055 65.4343 75.7876 65.3034 75.2696 65.1069C74.7159 64.9164 74.1563 64.6842 73.6145 64.4639C73.2276 64.3091 72.8346 64.1424 72.4298 63.9936C73.0609 63.5471 73.6919 63.0946 74.317 62.6421L74.9719 62.1718C76.8711 62.9041 78.3535 63.3804 79.7585 63.7197C80.9075 64.0234 82.0744 64.1782 83.158 64.2972C84.4023 64.4639 86.0454 64.6247 87.7303 64.4222C88.2125 64.3627 88.7959 64.2972 89.3734 64.1901C89.3734 64.196 89.3734 64.2079 89.3794 64.2139C89.3853 64.2675 89.3853 64.327 89.3913 64.3687C89.3913 64.4222 89.3853 64.4699 89.3794 64.5056C89.3675 64.5651 89.3556 64.6187 89.3436 64.6663C89.3258 64.7199 89.3079 64.7675 89.296 64.8033C89.2663 64.8747 89.2305 64.9402 89.1948 64.9938C89.1472 65.0652 89.0996 65.1367 89.0519 65.1962L89.0579 65.1902ZM68.3278 81.1337C66.1072 79.6334 62.9697 76.7102 61.3444 68.679C61.3623 68.3277 61.4099 67.9705 61.4575 67.6014C61.5587 66.4107 62.1719 65.1426 63.3329 64.9878C64.6426 64.7556 64.976 65.2915 65.6666 66.625C65.7559 66.7917 65.8452 66.9584 65.9405 67.1251L65.8452 67.3156L66.0179 67.2561C66.0298 67.2799 66.0417 67.2978 66.0596 67.3216L66.0357 67.4764L66.1012 67.3811C66.1012 67.3811 66.1012 67.3871 66.1072 67.3871L66.1489 67.4526C66.3037 67.7205 66.4823 67.9646 66.6847 68.2027L66.768 68.3039C66.8573 68.4408 66.9466 68.5837 67.0359 68.7207C67.792 69.9768 68.7148 71.2033 69.7626 72.3523C70.4175 73.0965 71.1022 73.8228 71.763 74.5313C72.656 75.4838 73.5848 76.4721 74.4302 77.4902C77.014 80.6574 79.2346 84.1223 81.0088 87.7659C81.8601 89.8317 82.4614 92.0107 82.7948 94.2314C82.4138 92.9692 81.9435 91.719 81.3183 90.5462L81.3124 90.5342C79.8657 88.0278 77.6391 85.9322 74.8767 84.4676C73.9956 83.9914 73.0847 83.5627 72.1976 83.14C70.8997 82.5208 69.5542 81.8838 68.3338 81.1277L68.3278 81.1337ZM54.4562 48.0025L54.5396 48.0621C55.8136 48.9253 57.1293 49.8243 58.6296 50.3363C58.6534 50.3601 58.6772 50.378 58.701 50.3958C58.8022 50.497 58.8796 50.6101 58.9392 50.7352C59.0999 51.0805 58.7189 51.9021 58.3379 52.1938C58.0045 52.4557 57.9092 52.4319 57.683 52.17C57.3139 51.5151 56.8971 50.9078 56.4566 50.3601C55.7838 49.4849 55.0397 48.6693 54.2836 47.8835C54.3431 47.9251 54.3967 47.9608 54.4562 48.0025ZM80.2705 55.9445C84.0629 54.0572 88.2006 52.8606 92.5645 52.3843C93.8683 52.2295 95.1245 52.1878 96.2854 52.2652C96.333 52.2712 96.3807 52.2771 96.4283 52.2831C96.4223 52.2831 96.4104 52.2831 96.4045 52.289L96.2497 52.3128C95.7972 52.3843 95.3388 52.4557 94.8863 52.5272C93.2849 52.7653 91.8262 53.0392 90.4391 53.3726C85.9144 54.4323 81.9673 56.0695 78.7167 58.2366C77.0378 59.2903 75.4125 60.4572 73.8348 61.5884C72.4596 62.5767 71.0426 63.6007 69.6078 64.5294C69.3399 64.6961 69.078 64.8688 68.816 65.0474C68.4231 65.3093 68.0242 65.5713 67.6134 65.8035C68.4469 64.6306 69.5126 63.6602 70.4949 62.8088C72.4715 61.0109 74.198 59.6535 75.9245 58.5283C77.5498 57.409 78.931 56.5934 80.2705 55.9564H80.2765L80.2705 55.9445ZM59.981 52.4021L59.8501 52.289C59.8203 52.2712 59.7965 52.2474 59.7667 52.2235C59.8917 51.9914 59.987 51.7473 60.0525 51.5032C60.243 51.6401 60.4454 51.7711 60.6538 51.8782C60.7609 51.9378 60.8681 52.0033 60.9812 52.0628C61.1956 52.1878 61.4099 52.3128 61.6302 52.426C61.7552 52.4915 61.8862 52.551 62.0171 52.6165C62.291 52.7474 62.553 52.8725 62.803 53.0213C63.4579 53.3904 64.1068 53.8548 64.7319 54.3966C65.4344 54.9979 65.9524 55.5932 66.3096 56.2183C67.3276 57.9746 67.2324 60.0762 66.9704 61.5169C66.8216 62.2254 66.637 62.9458 66.4584 63.6364L66.2977 64.2675C66.2263 64.5235 66.1608 64.7795 66.0953 65.0414C65.8155 64.6247 65.4344 64.202 64.8927 63.9876C64.7498 63.9281 64.595 63.8864 64.4402 63.8567C63.8508 63.7376 63.1781 63.7971 62.4994 64.0353C62.416 64.065 62.3327 64.1008 62.2493 64.1424C62.2612 64.0948 62.2791 64.0531 62.291 64.0055C62.803 62.279 63.059 60.8442 63.0947 59.4928V59.4749C63.0352 57.1649 62.1362 54.7359 60.7431 53.1225C60.5109 52.8606 60.243 52.6284 59.993 52.4141L59.981 52.4021ZM69.5721 69.2743C70.4651 69.7447 71.4177 70.215 72.3941 70.6496L72.4417 70.6734C73.299 71.0604 74.1861 71.4533 75.1208 71.7272C74.9481 71.7153 74.7755 71.6974 74.6088 71.6795H74.5969C73.6145 71.5009 72.6322 71.1675 71.7035 70.7091C70.9831 70.3043 70.2746 69.834 69.5662 69.2743H69.5721ZM70.3699 61.3681C69.3995 62.2016 68.4112 63.0648 67.5301 64.0472C67.6372 63.6423 67.7444 63.2375 67.8337 62.8386C68.3219 61.0526 68.6672 58.4211 67.5182 56.0338C66.7561 54.4799 65.4285 53.4023 64.3569 52.6343C63.696 52.1521 62.9697 51.7949 62.2612 51.4436L61.9755 51.3008C61.8504 51.2234 61.7195 51.1519 61.5885 51.0805C61.3325 50.9376 61.0884 50.8007 60.8562 50.6459C61.2551 50.6399 61.648 50.6101 62.035 50.5863C62.6601 50.5447 63.2436 50.503 63.827 50.5387C66.8276 50.759 68.7327 53.6881 69.4173 54.9502C69.9531 56.0874 70.3461 57.3197 70.7271 58.5104C70.9355 59.1594 71.1498 59.8321 71.382 60.4691C71.0426 60.7728 70.7033 61.0645 70.358 61.3621L70.3699 61.3681ZM59.0464 53.1166C59.0761 53.1404 59.1059 53.1642 59.1297 53.188C59.2607 53.3011 59.3976 53.4202 59.5464 53.5571C59.8203 53.8012 60.0823 54.1108 60.368 54.5216C61.398 56.1171 61.9814 58.0877 61.9219 59.7785C61.8385 60.9692 61.6063 62.1956 61.2432 63.4221C61.0884 63.94 60.9038 64.5473 60.7431 65.1783C60.5823 64.065 60.4454 62.9577 60.3085 61.8801L60.1954 61.0049C59.9275 58.82 59.475 56.0338 58.3379 53.4797C58.5879 53.4142 58.8261 53.2952 59.0404 53.1225L59.0464 53.1166ZM80.0622 83.6282C79.8597 83.2889 79.6573 82.9495 79.4549 82.6042C78.5321 81.0801 77.5379 79.6215 76.4841 78.2462C77.7879 79.2583 79.0798 80.324 80.1336 81.5921C81.0385 82.6935 81.8125 84.0211 82.4436 85.5393C82.9913 86.7776 83.3485 88.0397 83.5152 89.2959C83.664 90.2425 83.8188 91.2546 83.8367 92.2608C83.8367 92.6001 83.8248 92.9573 83.8009 93.3205C83.4437 91.4094 83.0091 89.802 82.4495 88.3255C81.8601 86.6526 80.9433 85.1225 80.0622 83.6401V83.6282ZM84.6702 89.2066C84.4915 87.8433 84.1284 86.5156 83.5866 85.2714C82.9972 83.8366 82.3483 82.628 81.5922 81.5921C80.2467 79.681 78.3892 78.2522 76.5913 76.871L75.6804 76.1625C74.9243 75.5672 74.1444 74.954 73.4062 74.311C72.3107 73.3525 71.3284 72.3106 70.5128 71.4235C70.4651 71.37 70.4175 71.3164 70.3758 71.2628C71.2629 71.8224 72.144 72.2213 73.0311 72.4773C74.0134 72.8107 75.9662 73.1977 77.139 72.5547C77.2997 72.8524 77.4724 73.1679 77.6629 73.4656C78.1273 74.186 78.6274 74.8885 79.1096 75.5731C79.4728 76.0851 79.8359 76.6031 80.1872 77.127C81.3898 78.9249 82.896 81.3242 83.8902 83.9735C84.5987 86.1049 84.9321 88.3672 84.8726 90.6116C84.813 90.1235 84.7416 89.6472 84.6702 89.2126V89.2066ZM78.9131 70.9592C78.288 71.108 77.6093 71.0366 77.0259 70.9532C75.2517 70.7091 73.5252 69.9054 72.1381 69.2565C70.745 68.5956 69.5185 67.9586 68.3814 67.3097C68.1969 67.1966 68.0063 67.0954 67.8158 66.9882C68.0004 66.887 68.185 66.7858 68.3457 66.6846C69.0363 66.9406 69.715 67.2561 70.3758 67.5657C70.7866 67.7562 71.1915 67.9467 71.6201 68.1313C72.1262 68.3277 72.6322 68.5361 73.1382 68.7385C74.6564 69.3577 76.2281 69.9947 77.8713 70.3817C78.419 70.5186 78.9548 70.6139 79.4847 70.6794C79.3835 70.7865 79.2168 70.8877 78.9131 70.9651V70.9592ZM76.502 68.7861C75.2755 68.3575 74.0491 67.8574 72.8584 67.3692C72.4834 67.2144 72.1083 67.0656 71.7451 66.9168C71.4475 66.7858 71.1498 66.6429 70.8581 66.506C70.4651 66.3214 70.0663 66.1309 69.6495 65.9582L69.5602 65.9225C70.0782 65.5951 70.6199 65.2379 71.2391 64.8092C71.251 64.8152 71.2629 64.8152 71.2748 64.8211C71.9356 65.0116 72.5905 65.2855 73.2216 65.5475C73.7217 65.7558 74.2337 65.9701 74.7457 66.1428C75.347 66.375 75.9662 66.5357 76.5615 66.6905C76.8413 66.762 77.1271 66.8334 77.4248 66.9227C77.4724 66.9346 77.526 66.9406 77.5736 66.9406C77.6093 66.9584 77.651 66.9703 77.6927 66.9822L78.0082 67.0477C78.4607 67.143 78.9131 67.2382 79.3597 67.3335C79.7169 67.4109 80.08 67.4823 80.4372 67.5478C80.717 67.5955 80.9909 67.6431 81.2707 67.6907L81.5446 67.7383C81.9077 67.7979 82.2709 67.8515 82.6341 67.8991C83.0687 67.9527 83.4199 67.9824 83.7474 67.9884C83.8903 67.9943 84.0391 67.9943 84.1998 67.9884C84.1939 68.4706 83.7414 68.8874 82.8186 69.2565C80.8004 69.9649 78.5797 69.447 76.4841 68.7861H76.502ZM87.76 63.2554L87.6826 63.2673C86.0811 63.4697 84.4737 63.3149 83.0925 63.1303C80.5265 62.8862 78.0677 62.1004 76.1031 61.3681C76.8711 60.8263 77.7343 60.231 78.6214 59.6535L78.6274 59.6475C78.9429 59.713 79.2584 59.7964 79.574 59.8738L79.9014 59.9571C80.0443 59.9928 80.1931 60.0286 80.336 60.0643C80.4194 60.0821 80.5027 60.1 80.592 60.1179L81.2767 60.2488C81.4731 60.2846 81.6756 60.3203 81.872 60.362L81.9792 60.3858C82.2828 60.4453 82.5805 60.5048 82.8841 60.5584C83.2711 60.6299 83.5985 60.6775 83.9022 60.7132C84.2475 60.7549 84.5987 60.7906 84.944 60.8263L84.9857 60.8323C85.331 60.868 85.6763 60.9037 86.0216 60.9275C86.4086 60.9514 86.7896 60.9573 87.1111 60.9633C87.4623 60.9633 87.8136 60.9692 88.1648 60.9573C88.3435 60.9514 88.5221 60.9454 88.7007 60.9335C88.8614 60.9216 89.0281 60.9097 89.1888 60.8918L89.3555 60.874C89.6711 60.8442 89.9985 60.8144 90.326 60.7668C90.6891 60.7132 91.0523 60.6477 91.4155 60.5644C91.8263 60.4691 92.1835 60.3679 92.5049 60.2488C92.5109 60.2488 92.5169 60.2429 92.5288 60.2429C92.6538 60.7013 92.5347 61.2312 92.2013 61.636C91.1297 62.8208 89.3436 63.047 87.766 63.2494L87.76 63.2554ZM85.7537 55.9683C88.3732 54.9919 91.2666 54.2477 94.3863 53.7595L94.7851 53.7C95.4579 53.5988 96.1247 53.4976 96.8153 53.3845C96.6902 53.4976 96.5593 53.5988 96.4402 53.6881C94.4041 55.1527 91.856 55.6349 89.4151 55.9385C88.2899 56.0457 87.0813 56.0576 85.7537 55.9742V55.9683Z" fill="#E2A97E"/>
<path d="M37.6079 36.5361H34.9467C34.9169 36.5361 34.8871 36.554 34.8752 36.5838C34.8633 36.6135 34.8693 36.6493 34.8871 36.6731L36.2088 38.3043C36.2207 38.3222 36.2445 38.3341 36.2683 38.3341C36.2921 38.3341 36.31 38.3222 36.3279 38.3043L37.6674 36.6731C37.6853 36.6493 37.6912 36.6135 37.6793 36.5838C37.6674 36.554 37.6376 36.5361 37.6079 36.5361Z" fill="#E2A97E"/>
<path d="M36.1373 38.6853H33.4106C33.3809 38.6853 33.3511 38.7032 33.3392 38.7329C33.3273 38.7627 33.3332 38.7984 33.3511 38.8222L37.465 44.0375C37.4888 44.0673 37.5305 44.0732 37.5602 44.0554C37.59 44.0375 37.6079 43.9958 37.5959 43.9601L36.2088 38.7448C36.1969 38.7091 36.1671 38.6853 36.1373 38.6853Z" fill="#E2A97E"/>
<path d="M41.1086 36.5361H38.3402C38.3104 36.5361 38.2807 36.554 38.2688 36.5897C38.2569 36.6195 38.2628 36.6552 38.2866 36.679L39.7095 38.3162C39.7274 38.3341 39.7452 38.34 39.769 38.34C39.7929 38.34 39.8107 38.3281 39.8226 38.3102C40.0905 37.9828 40.8169 37.0838 41.1681 36.673C41.186 36.6492 41.1919 36.6135 41.18 36.5837C41.1681 36.554 41.1383 36.5302 41.1086 36.5302V36.5361Z" fill="#E2A97E"/>
<path d="M42.7219 38.6853H39.888C39.8523 38.6853 39.8225 38.7091 39.8166 38.7448L38.5128 43.9958C38.5009 44.0315 38.5187 44.0732 38.5485 44.0911C38.5783 44.1089 38.6199 44.103 38.6437 44.0732L42.7814 38.8222C42.7993 38.7984 42.8052 38.7627 42.7933 38.7329C42.7814 38.7032 42.7517 38.6853 42.7219 38.6853Z" fill="#E2A97E"/>
<path d="M37.9711 36.6671C37.9473 36.6671 37.9294 36.679 37.9175 36.6969L36.5661 38.34C36.5482 38.3639 36.5423 38.3996 36.5542 38.4293C36.5661 38.4591 36.5958 38.477 36.6256 38.477H39.3999C39.4297 38.477 39.4595 38.4591 39.4714 38.4234C39.4833 38.3936 39.4773 38.3579 39.4535 38.3341L38.0306 36.6909C38.0128 36.6731 37.9949 36.6671 37.9711 36.6671Z" fill="#E2A97E"/>
<path d="M41.4419 36.6671C41.4181 36.6671 41.4002 36.679 41.3883 36.6969L40.0369 38.34C40.019 38.3639 40.0131 38.3996 40.025 38.4293C40.0369 38.4591 40.0667 38.477 40.0964 38.477H42.8708C42.9005 38.477 42.9303 38.4591 42.9422 38.4234C42.9541 38.3936 42.9482 38.3579 42.9303 38.3341L41.5074 36.6909C41.4896 36.6731 41.4717 36.6671 41.4538 36.6671H41.4419Z" fill="#E2A97E"/>
<path d="M34.5299 36.6671C34.5061 36.6671 34.4883 36.679 34.4764 36.6969L33.1249 38.34C33.1071 38.3639 33.1011 38.3996 33.113 38.4293C33.1249 38.4591 33.1547 38.477 33.1844 38.477H35.9588C35.9885 38.477 36.0183 38.4591 36.0302 38.4234C36.0421 38.3936 36.0362 38.3579 36.0124 38.3341L34.5895 36.6909C34.5776 36.6731 34.5537 36.6671 34.5359 36.6671H34.5299Z" fill="#E2A97E"/>
<path d="M36.5601 38.6973C36.5363 38.6973 36.5125 38.7092 36.5006 38.733C36.4887 38.7568 36.4827 38.7806 36.4887 38.8044L37.9889 44.4483C38.0009 44.4841 38.0306 44.5079 38.0604 44.5079C38.0961 44.5079 38.1259 44.4841 38.1318 44.4483L39.5368 38.8044C39.5428 38.7806 39.5369 38.7508 39.5249 38.733C39.513 38.7151 39.4892 38.6973 39.4654 38.6973H36.5601Z" fill="#E2A97E"/>
<path d="M42.2754 53.4083H40.6858C40.668 53.4083 40.6501 53.4202 40.6442 53.4381C40.6382 53.456 40.6382 53.4798 40.6501 53.4917L41.436 54.468C41.4419 54.48 41.4538 54.4859 41.4717 54.4859C41.4836 54.4859 41.4955 54.48 41.5074 54.468L42.3052 53.4917C42.3171 53.4798 42.3231 53.456 42.3111 53.4381C42.3052 53.4202 42.2873 53.4083 42.2695 53.4083H42.2754Z" fill="#E2A97E"/>
<path d="M41.3943 54.6884H39.769C39.7511 54.6884 39.7333 54.7003 39.7273 54.7181C39.7213 54.736 39.7213 54.7538 39.7333 54.7717L42.1861 57.8794C42.198 57.8973 42.2218 57.9032 42.2397 57.8913C42.2575 57.8794 42.2694 57.8556 42.2635 57.8318L41.4359 54.7241C41.43 54.7003 41.4121 54.6884 41.3943 54.6884Z" fill="#E2A97E"/>
<path d="M44.3591 53.4083H42.71C42.6921 53.4083 42.6743 53.4202 42.6683 53.4381C42.6624 53.456 42.6624 53.4798 42.6743 53.4917L43.5197 54.468C43.5316 54.48 43.5435 54.4859 43.5554 54.4859C43.5673 54.4859 43.5792 54.48 43.5911 54.468C43.7519 54.2716 44.1865 53.7358 44.3948 53.4917C44.4068 53.4798 44.4127 53.456 44.4008 53.4381C44.3949 53.4202 44.377 53.4083 44.3591 53.4083Z" fill="#E2A97E"/>
<path d="M45.3236 54.6884H43.6328C43.615 54.6884 43.5971 54.7062 43.5912 54.7241L42.8112 57.8556C42.8053 57.8794 42.8172 57.9032 42.8351 57.9151C42.8529 57.9271 42.8767 57.9211 42.8886 57.9032L45.3534 54.7717C45.3653 54.7538 45.3653 54.736 45.3593 54.7181C45.3534 54.7003 45.3355 54.6884 45.3177 54.6884H45.3236Z" fill="#E2A97E"/>
<path d="M42.4898 53.4857C42.4779 53.4857 42.466 53.4917 42.4541 53.5036L41.6504 54.4859C41.6385 54.4978 41.6325 54.5216 41.6444 54.5395C41.6504 54.5573 41.6682 54.5693 41.6861 54.5693H43.3412C43.359 54.5693 43.3769 54.5573 43.3828 54.5395C43.3888 54.5216 43.3888 54.4978 43.3769 54.4859L42.5255 53.5036C42.5196 53.4917 42.5017 53.4857 42.4898 53.4857Z" fill="#E2A97E"/>
<path d="M44.5616 53.4857C44.5497 53.4857 44.5378 53.4917 44.5259 53.5036L43.7222 54.4859C43.7102 54.4978 43.7043 54.5216 43.7162 54.5395C43.7222 54.5573 43.74 54.5693 43.7579 54.5693H45.4129C45.4308 54.5693 45.4487 54.5573 45.4546 54.5395C45.4606 54.5216 45.4606 54.4978 45.4487 54.4859L44.5973 53.5036C44.5914 53.4917 44.5735 53.4857 44.5616 53.4857Z" fill="#E2A97E"/>
<path d="M40.4417 53.4857C40.4298 53.4857 40.4179 53.4917 40.406 53.5036L39.6023 54.4859C39.5904 54.4978 39.5844 54.5216 39.5963 54.5395C39.6023 54.5573 39.6202 54.5693 39.638 54.5693H41.2931C41.3109 54.5693 41.3288 54.5573 41.3348 54.5395C41.3407 54.5216 41.3407 54.4978 41.3228 54.4859L40.4715 53.5036C40.4655 53.4917 40.4536 53.4857 40.4358 53.4857H40.4417Z" fill="#E2A97E"/>
<path d="M41.6503 54.6943C41.6384 54.6943 41.6206 54.7003 41.6146 54.7122C41.6087 54.7241 41.6027 54.742 41.6087 54.7539L42.5017 58.1176C42.5076 58.1414 42.5255 58.1533 42.5434 58.1533C42.5612 58.1533 42.5791 58.1355 42.585 58.1176L43.4185 54.7539C43.4245 54.736 43.4185 54.7241 43.4126 54.7122C43.4066 54.7003 43.3888 54.6943 43.3769 54.6943H41.6444H41.6503Z" fill="#E2A97E"/>
<path d="M55.3671 31.5352H54.1407C54.1288 31.5352 54.1169 31.5471 54.111 31.559C54.105 31.5709 54.105 31.5887 54.1169 31.6006L54.7242 32.3567C54.7301 32.3627 54.742 32.3686 54.748 32.3686C54.7599 32.3686 54.7658 32.3627 54.7718 32.3567L55.391 31.6006C55.4029 31.5887 55.4029 31.5709 55.3969 31.559C55.391 31.5471 55.379 31.5352 55.3671 31.5352Z" fill="#E2A97E"/>
<path d="M54.6885 32.5234H53.4324C53.4204 32.5234 53.4085 32.5353 53.4026 32.5472C53.3966 32.5591 53.3966 32.577 53.4085 32.5889L55.3077 34.9941C55.3196 35.006 55.3375 35.012 55.3494 35.0001C55.3613 34.9941 55.3732 34.9703 55.3672 34.9524L54.7243 32.5472C54.7183 32.5294 54.7064 32.5175 54.6885 32.5175V32.5234Z" fill="#E2A97E"/>
<path d="M56.9865 31.5352H55.7065C55.6946 31.5352 55.6768 31.5471 55.6768 31.559C55.6708 31.5709 55.6768 31.5887 55.6827 31.6006L56.3376 32.3567C56.3436 32.3627 56.3555 32.3686 56.3614 32.3686C56.3733 32.3686 56.3793 32.3627 56.3853 32.3567C56.5103 32.2019 56.8437 31.7912 57.0044 31.6006C57.0163 31.5887 57.0163 31.5709 57.0104 31.559C57.0044 31.5471 56.9925 31.5352 56.9806 31.5352H56.9865Z" fill="#E2A97E"/>
<path d="M57.7306 32.5236H56.4209C56.403 32.5236 56.3911 32.5355 56.3852 32.5533L55.7838 34.9764C55.7779 34.9943 55.7838 35.0121 55.8017 35.0181C55.8196 35.024 55.8374 35.024 55.8434 35.0121L57.7545 32.589C57.7664 32.5771 57.7664 32.5593 57.7604 32.5474C57.7545 32.5355 57.7425 32.5236 57.7306 32.5236Z" fill="#E2A97E"/>
<path d="M55.5339 31.5947C55.522 31.5947 55.5161 31.6007 55.5101 31.6066L54.885 32.3627C54.8731 32.3746 54.8731 32.3925 54.879 32.4044C54.885 32.4163 54.8969 32.4282 54.9088 32.4282H56.1888C56.2007 32.4282 56.2186 32.4163 56.2186 32.4044C56.2245 32.3925 56.2186 32.3746 56.2126 32.3627L55.5577 31.6066C55.5518 31.6007 55.5399 31.5947 55.5339 31.5947Z" fill="#E2A97E"/>
<path d="M57.1354 31.5947C57.1235 31.5947 57.1175 31.6007 57.1116 31.6066L56.4864 32.3627C56.4745 32.3746 56.4745 32.3925 56.4805 32.4044C56.4864 32.4163 56.4983 32.4282 56.5102 32.4282H57.7902C57.8022 32.4282 57.82 32.4163 57.82 32.4044C57.826 32.3925 57.826 32.3746 57.8141 32.3627L57.1592 31.6066C57.1532 31.6007 57.1413 31.5947 57.1354 31.5947Z" fill="#E2A97E"/>
<path d="M53.9502 31.5947C53.9383 31.5947 53.9323 31.6007 53.9264 31.6066L53.3012 32.3627C53.2893 32.3746 53.2893 32.3925 53.2953 32.4044C53.3013 32.4163 53.3132 32.4282 53.3251 32.4282H54.6051C54.617 32.4282 54.6348 32.4163 54.6408 32.4044C54.6467 32.3925 54.6408 32.3746 54.6348 32.3627L53.9799 31.6066C53.974 31.6007 53.9621 31.5947 53.9561 31.5947H53.9502Z" fill="#E2A97E"/>
<path d="M54.885 32.5294C54.8731 32.5294 54.8612 32.5354 54.8552 32.5473C54.8492 32.5592 54.8492 32.5711 54.8492 32.583L55.5399 35.1847C55.5458 35.2025 55.5577 35.2144 55.5756 35.2144C55.5934 35.2144 55.6053 35.2025 55.6113 35.1847L56.2602 32.583C56.2602 32.5711 56.2602 32.5592 56.2543 32.5473C56.2483 32.5354 56.2364 32.5294 56.2245 32.5294H54.885Z" fill="#E2A97E"/>
</svg>
