<svg width="630" height="160" viewBox="0 0 630 160" fill="none" xmlns="http://www.w3.org/2000/svg">
<path d="M266.902 115.9H265.602V105H266.902V110.2L271.602 105H273.102L268.302 110.2L274.002 115.9H272.202L266.902 110.5V115.9Z" fill="#E4A97C"/>
<path d="M282.002 104.8L287.102 115.9H285.802L282.002 107.8H281.902L278.302 115.9H276.902L281.902 104.8H282.002Z" fill="#E4A97C"/>
<path d="M299.902 104.8H300.002V115.9H298.602V107.8L291.102 116.2H291.002V105H292.302V113.2L299.902 104.8Z" fill="#E4A97C"/>
<path d="M306.201 105V109.8H312.201V105H313.501V115.9H312.201V111H306.201V115.9H304.801V105H306.201Z" fill="#E4A97C"/>
<path d="M327.202 104.8H327.302V115.9H326.002V107.8L318.502 116.2H318.402V105H319.702V113.2L327.202 104.8Z" fill="#E4A97C"/>
<path d="M333.501 115.9H332.201V105H333.501V110.2L338.201 105H339.701L334.901 110.2L340.601 115.9H338.901L333.501 110.5V115.9Z" fill="#E4A97C"/>
<path d="M345.402 105.3C345.802 105.2 346.202 105 346.702 104.9C347.202 104.8 347.802 104.7 348.402 104.7C349.402 104.7 350.102 104.9 350.602 105.2C351.102 105.5 351.502 105.9 351.802 106.2C352.002 106.6 352.202 107 352.202 107.4C352.202 107.8 352.302 108 352.302 108.2V115.9H351.002V114.6C350.602 115.2 350.102 115.6 349.602 115.8C349.002 116 348.502 116.1 347.902 116.1C347.402 116.1 346.902 116 346.402 115.8C345.902 115.6 345.502 115.4 345.102 115C344.702 114.7 344.402 114.2 344.202 113.8C344.002 113.3 343.902 112.8 343.902 112.1C343.902 111.5 344.002 110.9 344.202 110.4C344.402 109.9 344.702 109.5 345.102 109.2C345.502 108.9 345.902 108.6 346.402 108.5C346.902 108.3 347.402 108.3 347.902 108.3C348.402 108.3 348.902 108.4 349.502 108.6C350.102 108.8 350.602 109.2 351.002 109.7V108C351.002 107.4 350.802 106.9 350.302 106.5C349.802 106.1 349.202 105.9 348.402 105.9C347.902 105.9 347.402 106 346.902 106.1C346.402 106.2 345.902 106.4 345.502 106.6L344.902 106.9L345.402 105.3ZM347.902 109.6C347.502 109.6 347.102 109.7 346.702 109.8C346.402 109.9 346.102 110.1 345.802 110.4C345.602 110.6 345.402 110.9 345.302 111.2C345.202 111.5 345.102 111.8 345.102 112.2C345.102 112.5 345.202 112.9 345.302 113.2C345.402 113.5 345.602 113.8 345.802 114.1C346.002 114.4 346.302 114.6 346.702 114.8C347.102 115 347.502 115 348.002 115C348.502 115 348.902 114.9 349.302 114.8C349.702 114.6 350.002 114.4 350.202 114.2C350.402 114 350.602 113.7 350.802 113.4C350.902 113.1 351.002 112.7 351.002 112.4C351.002 112.1 350.902 111.7 350.802 111.4C350.702 111.1 350.502 110.8 350.202 110.5C350.002 110.2 349.602 110 349.302 109.9C349.002 109.8 348.502 109.6 347.902 109.6Z" fill="#E4A97C"/>
<path d="M366.101 115.9H364.801V105H366.101V110.2L370.701 105H372.301L367.501 110.2L373.201 115.9H371.401L366.101 110.5V115.9Z" fill="#E4A97C"/>
<path d="M376.502 110.5C376.502 109.7 376.602 109 376.902 108.3C377.202 107.6 377.602 107 378.102 106.5C378.602 106 379.202 105.6 379.902 105.3C380.602 105 381.302 104.9 382.102 104.9C382.902 104.9 383.602 105 384.302 105.3C385.002 105.6 385.602 106 386.102 106.5C386.602 107 387.002 107.6 387.302 108.3C387.602 109 387.702 109.7 387.702 110.5C387.702 111.3 387.602 112 387.302 112.7C387.002 113.4 386.602 114 386.102 114.5C385.602 115 385.002 115.4 384.302 115.7C383.602 116 382.902 116.1 382.102 116.1C381.302 116.1 380.602 116 379.902 115.7C379.202 115.4 378.602 115 378.102 114.5C377.602 114 377.202 113.4 376.902 112.7C376.602 112 376.502 111.2 376.502 110.5ZM377.902 110.5C377.902 111.1 378.002 111.7 378.202 112.2C378.402 112.8 378.702 113.2 379.102 113.6C379.502 114 379.902 114.3 380.502 114.6C381.002 114.8 381.602 115 382.202 115C382.802 115 383.402 114.9 383.902 114.6C384.402 114.4 384.902 114 385.302 113.6C385.702 113.2 386.002 112.7 386.202 112.2C386.402 111.7 386.502 111.1 386.502 110.5C386.502 109.9 386.402 109.3 386.202 108.8C386.002 108.2 385.702 107.8 385.302 107.4C384.902 107 384.402 106.7 383.902 106.4C383.402 106.2 382.802 106 382.202 106C381.602 106 381.002 106.1 380.502 106.4C380.002 106.6 379.502 107 379.102 107.4C378.702 107.8 378.402 108.3 378.202 108.8C378.002 109.3 377.902 109.8 377.902 110.5Z" fill="#E4A97C"/>
<path d="M400.101 107.1C399.201 106.3 398.201 105.9 397.001 105.9C396.401 105.9 395.901 106 395.301 106.2C394.801 106.4 394.301 106.7 393.901 107.1C393.501 107.5 393.201 108 393.001 108.5C392.801 109.1 392.701 109.7 392.701 110.3C392.701 110.9 392.801 111.4 393.001 111.9C393.201 112.4 393.501 112.9 393.801 113.3C394.201 113.7 394.601 114.1 395.201 114.3C395.801 114.6 396.401 114.7 397.101 114.7C398.201 114.7 399.201 114.3 400.101 113.5L400.901 114.5C400.501 114.8 400.201 115 399.801 115.2C399.501 115.4 399.101 115.5 398.801 115.6C398.501 115.7 398.201 115.8 397.901 115.8C397.601 115.8 397.301 115.8 397.101 115.8C396.101 115.8 395.301 115.6 394.601 115.3C393.901 115 393.301 114.5 392.801 114C392.301 113.5 392.001 112.8 391.701 112.2C391.501 111.5 391.301 110.8 391.301 110.2C391.301 109.4 391.401 108.7 391.701 108C392.001 107.3 392.401 106.7 392.901 106.2C393.401 105.7 394.001 105.3 394.701 105C395.401 104.7 396.201 104.5 397.001 104.5C397.801 104.5 398.601 104.6 399.201 104.9C399.801 105.2 400.401 105.5 400.801 105.9L400.101 107.1Z" fill="#E4A97C"/>
<path d="M413.501 108.2L409.801 116.2L406.201 108.2H406.101V115.9H404.701V105H406.101L409.801 113.1L413.601 105H414.901V115.9H413.601V108.2H413.501Z" fill="#E4A97C"/>
<path d="M428.201 109.2C428.101 108.7 428.001 108.3 427.801 107.9C427.601 107.5 427.301 107.2 426.901 106.9C426.601 106.6 426.101 106.4 425.701 106.2C425.201 106 424.701 106 424.201 106C423.701 106 423.201 106.1 422.801 106.2C422.401 106.4 422.001 106.6 421.701 106.9C421.401 107.2 421.101 107.5 420.801 107.9C420.601 108.3 420.401 108.7 420.201 109.2H428.201ZM424.401 115C425.101 115 425.801 114.8 426.401 114.5C427.001 114.1 427.501 113.7 427.901 113.1H429.401C429.201 113.6 428.901 114 428.501 114.4C428.101 114.8 427.801 115.1 427.301 115.4C426.901 115.7 426.401 115.9 425.901 116.1C425.401 116.3 424.801 116.3 424.301 116.3C423.501 116.3 422.801 116.2 422.101 115.9C421.401 115.6 420.801 115.2 420.301 114.7C419.801 114.2 419.401 113.6 419.101 112.9C418.801 112.2 418.701 111.5 418.701 110.7C418.701 109.9 418.801 109.2 419.101 108.5C419.401 107.8 419.801 107.2 420.301 106.7C420.801 106.2 421.401 105.8 422.001 105.5C422.701 105.2 423.401 105.1 424.201 105.1C425.101 105.1 425.901 105.2 426.601 105.5C427.301 105.8 427.901 106.2 428.401 106.7C428.901 107.2 429.201 107.8 429.501 108.5C429.701 109.2 429.901 109.9 429.901 110.7H420.001C420.001 111.3 420.101 111.9 420.301 112.4C420.501 113 420.801 113.4 421.201 113.8C421.601 114.2 422.001 114.5 422.601 114.8C423.201 114.8 423.801 115 424.401 115Z" fill="#E4A97C"/>
<path d="M432.801 106.2V105H440.401V106.2H437.201V115.9H435.901V106.2H432.801Z" fill="#E4A97C"/>
<path d="M443.502 110.5C443.502 109.7 443.602 109 443.902 108.3C444.202 107.6 444.602 107 445.102 106.5C445.602 106 446.202 105.6 446.902 105.3C447.602 105 448.302 104.9 449.102 104.9C449.902 104.9 450.602 105 451.302 105.3C452.002 105.6 452.602 106 453.102 106.5C453.602 107 454.002 107.6 454.302 108.3C454.602 109 454.702 109.7 454.702 110.5C454.702 111.3 454.602 112 454.302 112.7C454.002 113.4 453.602 114 453.102 114.5C452.602 115 452.002 115.4 451.302 115.7C450.602 116 449.902 116.1 449.102 116.1C448.302 116.1 447.602 116 446.902 115.7C446.202 115.4 445.602 115 445.102 114.5C444.602 114 444.202 113.4 443.902 112.7C443.602 112 443.502 111.2 443.502 110.5ZM444.802 110.5C444.802 111.1 444.902 111.7 445.102 112.2C445.302 112.8 445.602 113.2 446.002 113.6C446.402 114 446.802 114.3 447.402 114.6C447.902 114.8 448.502 115 449.102 115C449.702 115 450.302 114.9 450.802 114.6C451.302 114.4 451.802 114 452.202 113.6C452.602 113.2 452.902 112.7 453.102 112.2C453.302 111.7 453.402 111.1 453.402 110.5C453.402 109.9 453.302 109.3 453.102 108.8C452.902 108.2 452.602 107.8 452.202 107.4C451.802 107 451.302 106.7 450.802 106.4C450.302 106.2 449.702 106 449.102 106C448.502 106 447.902 106.1 447.402 106.4C446.902 106.6 446.402 107 446.002 107.4C445.602 107.8 445.302 108.3 445.102 108.8C445.002 109.3 444.802 109.8 444.802 110.5Z" fill="#E4A97C"/>
<path d="M463.002 104.8L468.102 115.9H466.802L463.002 107.8H462.902L459.302 115.9H457.902L462.902 104.8H463.002Z" fill="#E4A97C"/>
<path d="M471.301 110.5C471.301 109.7 471.401 109 471.701 108.3C472.001 107.6 472.401 107 472.901 106.5C473.401 106 474.001 105.6 474.701 105.3C475.401 105 476.101 104.9 476.901 104.9C477.701 104.9 478.401 105 479.101 105.3C479.801 105.6 480.401 106 480.901 106.5C481.401 107 481.801 107.6 482.101 108.3C482.401 109 482.501 109.7 482.501 110.5C482.501 111.3 482.401 112 482.101 112.7C481.801 113.4 481.401 114 480.901 114.5C480.401 115 479.801 115.4 479.101 115.7C478.401 116 477.701 116.1 476.901 116.1C476.101 116.1 475.401 116 474.701 115.7C474.001 115.4 473.401 115 472.901 114.5C472.401 114 472.001 113.4 471.701 112.7C471.401 112 471.301 111.2 471.301 110.5ZM472.601 110.5C472.601 111.1 472.701 111.7 472.901 112.2C473.101 112.8 473.401 113.2 473.801 113.6C474.201 114 474.601 114.3 475.201 114.6C475.701 114.8 476.301 115 476.901 115C477.501 115 478.101 114.9 478.601 114.6C479.101 114.4 479.601 114 480.001 113.6C480.401 113.2 480.701 112.7 480.901 112.2C481.101 111.7 481.201 111.1 481.201 110.5C481.201 109.9 481.101 109.3 480.901 108.8C480.701 108.2 480.401 107.8 480.001 107.4C479.601 107 479.101 106.7 478.601 106.4C478.101 106.2 477.501 106 476.901 106C476.301 106 475.701 106.1 475.201 106.4C474.701 106.6 474.201 107 473.801 107.4C473.401 107.8 473.101 108.3 472.901 108.8C472.701 109.3 472.601 109.8 472.601 110.5Z" fill="#E4A97C"/>
<path d="M492.601 105V106.2H488.101V115.9H486.801V105H492.601Z" fill="#E4A97C"/>
<path d="M505.601 104.8H505.701V115.9H504.401V107.8L496.801 116.2H496.701V105H498.001V113.2L505.601 104.8Z" fill="#E4A97C"/>
<path d="M519.402 104.8H519.502V115.9H518.202V107.8L510.702 116.2H510.602V105H511.902V113.2L519.402 104.8Z" fill="#E4A97C"/>
<path d="M189.801 60.5004C189.801 58.0004 190.201 55.7004 191.001 53.6004C191.801 51.5004 193.001 49.7004 194.501 48.2004C196.001 46.7004 197.801 45.5004 199.901 44.7004C202.001 43.9004 204.301 43.4004 206.901 43.4004C209.101 43.4004 211.201 43.7004 213.201 44.3004C215.201 44.9004 217.201 45.8004 219.001 47.1004L217.401 53.1004L217.001 53.0004C216.701 51.7004 216.201 50.5004 215.701 49.3004C215.201 48.2004 214.501 47.2004 213.701 46.4004C212.901 45.6004 212.001 44.9004 211.001 44.5004C210.001 44.0004 208.801 43.8004 207.401 43.8004C205.201 43.8004 203.401 44.3004 201.801 45.2004C200.201 46.2004 199.001 47.4004 198.001 49.0004C197.001 50.6004 196.301 52.4004 195.801 54.5004C195.301 56.6004 195.101 58.7004 195.101 60.9004C195.101 63.0004 195.401 65.0004 195.901 67.0004C196.401 69.0004 197.201 70.7004 198.301 72.3004C199.301 73.8004 200.601 75.1004 202.201 76.0004C203.701 76.9004 205.501 77.4004 207.601 77.4004C209.001 77.4004 210.301 77.1004 211.501 76.6004C212.701 76.0004 213.701 75.3004 214.501 74.3004C215.401 73.4004 216.101 72.2004 216.601 71.0004C217.201 69.7004 217.601 68.4004 217.801 67.0004L218.201 66.9004L220.001 73.3004C218.101 74.9004 216.101 76.0004 213.901 76.7004C211.801 77.4004 209.501 77.8004 206.901 77.8004C204.501 77.8004 202.301 77.4004 200.201 76.6004C198.101 75.8004 196.301 74.6004 194.801 73.1004C193.301 71.6004 192.001 69.8004 191.201 67.7004C190.301 65.5004 189.801 63.1004 189.801 60.5004Z" fill="#E4A97C"/>
<path d="M230.502 67.4C230.502 68.8 230.702 70.1 231.202 71.3C231.702 72.5 232.302 73.5 233.102 74.4C233.902 75.3 234.902 75.9 236.102 76.4C237.302 76.9 238.502 77.1 239.902 77.1C240.202 77.1 240.502 77.1 240.802 77.1C241.102 77.1 241.402 77 241.802 77C244.702 76.5 246.902 75.5 248.702 73.9C250.402 72.3 251.302 70 251.302 67.1V61.4C250.902 62.3 250.302 63 249.502 63.4C248.702 63.9 247.802 64.1 246.902 64.1C245.702 64.1 244.802 63.8 244.002 63.2C243.302 62.6 242.702 61.8 242.202 60.8C241.802 59.8 241.502 58.7 241.402 57.5C241.302 56.3 241.202 55 241.302 53.8C241.402 51 241.202 49 240.702 47.6C240.402 46.8 240.002 46.2 239.502 45.7C239.002 45.2 238.402 44.9 237.702 44.6C237.002 44.4 236.302 44.2 235.502 44.2C234.702 44.1 233.902 44.1 233.002 44.2C231.902 44.3 231.302 44.6 231.002 45.3C230.702 46 230.602 46.8 230.602 48V67.4H230.502ZM222.802 43.6C223.902 43.7 224.902 43.7 225.702 43.8C226.502 43.8 227.202 43.9 227.902 43.9C228.602 43.9 229.302 43.9 230.002 43.8C230.702 43.8 231.502 43.7 232.502 43.7C232.602 43.7 232.702 43.7 232.802 43.7C232.902 43.7 233.002 43.7 233.102 43.7C234.602 43.6 235.902 43.7 237.002 43.9C238.102 44.1 239.102 44.6 239.802 45.3C240.502 46 241.102 47.1 241.402 48.4C241.702 49.7 241.802 51.5 241.702 53.6C241.602 55.5 241.702 57 242.002 58.3C242.302 59.6 242.602 60.6 243.102 61.4C243.602 62.2 244.202 62.7 244.802 63.1C245.502 63.4 246.102 63.6 246.802 63.6C247.302 63.6 247.802 63.5 248.302 63.4C248.802 63.3 249.302 63 249.702 62.7C250.102 62.4 250.502 62 250.802 61.5C251.102 61 251.302 60.4 251.402 59.7V47.8C251.402 47.2 251.402 46.7 251.302 46.2C251.202 45.7 251.102 45.3 250.902 45C250.702 44.7 250.402 44.4 250.102 44.2C249.802 44 249.302 43.9 248.702 43.9V43.5C249.502 43.6 250.602 43.6 251.802 43.6C252.702 43.6 253.602 43.6 254.402 43.5V43.9C253.802 43.9 253.302 44 253.002 44.2C252.702 44.4 252.402 44.6 252.202 45C252.002 45.3 251.902 45.7 251.802 46.2C251.702 46.7 251.702 47.2 251.702 47.8V66.6C251.702 68.2 251.502 69.6 251.002 70.8C250.502 72 249.902 73 249.202 73.8C248.502 74.6 247.602 75.3 246.702 75.8C245.802 76.3 244.802 76.7 243.802 77C242.802 77.3 241.902 77.5 240.902 77.6C240.002 77.7 239.102 77.8 238.502 77.8C236.802 77.9 235.102 77.7 233.502 77.3C231.902 76.9 230.502 76.3 229.302 75.4C228.102 74.5 227.102 73.5 226.402 72.1C225.702 70.8 225.302 69.2 225.302 67.4V47.9C225.302 47.3 225.302 46.8 225.202 46.3C225.102 45.8 225.002 45.4 224.802 45.1C224.602 44.8 224.302 44.5 224.002 44.3C223.702 44.1 223.202 44 222.602 44V43.6H222.802Z" fill="#E4A97C"/>
<path d="M260.5 48.6002C260.5 47.8002 260.5 47.2002 260.4 46.6002C260.3 46.0002 260.2 45.6002 260 45.2002C259.8 44.8002 259.5 44.5002 259 44.4002C258.6 44.2002 258 44.1002 257.4 44.1002V43.7002C258.7 43.8002 259.8 43.8002 260.6 43.8002C261.5 43.8002 262.3 43.9002 263 43.9002C263.7 43.9002 264.6 43.9002 265.5 43.8002C266.4 43.8002 267.5 43.7002 268.8 43.7002V44.1002C268.1 44.1002 267.6 44.2002 267.2 44.4002C266.8 44.6002 266.5 44.8002 266.2 45.2002C266 45.5002 265.8 46.0002 265.7 46.5002C265.6 47.0002 265.6 47.6002 265.6 48.4002V77.5002H270.9C272.8 77.5002 274.4 77.4002 275.8 77.2002C277.2 77.0002 278.5 76.6002 279.6 76.0002C280.7 75.4002 281.7 74.7002 282.7 73.8002C283.6 72.9002 284.6 71.7002 285.6 70.4002H285.7C285.8 70.4002 285.8 70.4002 285.8 70.5002C285.8 70.5002 285.8 70.5002 285.9 70.6002L284.5 77.9002V78.0002H257.8V77.6002C258.4 77.6002 258.9 77.5002 259.2 77.3002C259.5 77.1002 259.8 76.9002 260 76.5002C260.2 76.2002 260.3 75.8002 260.4 75.3002C260.5 74.8002 260.5 74.3002 260.5 73.7002V48.6002Z" fill="#E4A97C"/>
<path d="M290.901 48.6002C290.901 47.8002 290.901 47.2002 290.801 46.6002C290.701 46.0002 290.601 45.6002 290.401 45.2002C290.201 44.8002 289.901 44.5002 289.401 44.4002C289.001 44.2002 288.401 44.1002 287.801 44.1002V43.7002C289.101 43.8002 290.201 43.8002 291.001 43.8002C291.901 43.8002 292.701 43.9002 293.401 43.9002C294.101 43.9002 295.001 43.9002 295.901 43.8002C296.801 43.8002 297.901 43.7002 299.201 43.7002V44.1002C298.501 44.1002 298.001 44.2002 297.601 44.4002C297.201 44.6002 296.901 44.8002 296.601 45.2002C296.401 45.5002 296.201 46.0002 296.101 46.5002C296.001 47.0002 296.001 47.6002 296.001 48.4002V77.5002H301.301C303.201 77.5002 304.801 77.4002 306.201 77.2002C307.601 77.0002 308.901 76.6002 310.001 76.0002C311.101 75.4002 312.101 74.7002 313.101 73.8002C314.001 72.9002 315.001 71.7002 316.001 70.4002H316.101C316.201 70.4002 316.201 70.4002 316.201 70.5002C316.201 70.5002 316.201 70.5002 316.301 70.6002L314.901 77.9002V78.0002H288.201V77.6002C288.801 77.6002 289.301 77.5002 289.601 77.3002C289.901 77.1002 290.201 76.9002 290.401 76.5002C290.601 76.2002 290.701 75.8002 290.801 75.3002C290.901 74.8002 290.901 74.3002 290.901 73.7002V48.6002Z" fill="#E4A97C"/>
<path d="M324.102 77.5006C323.202 77.5006 322.402 77.5006 321.702 77.5006C321.002 77.5006 320.302 77.5006 319.802 77.6006C319.202 77.6006 318.602 77.7006 318.102 77.7006V77.3006C318.802 77.3006 319.402 77.2006 319.802 77.1006C320.202 76.9006 320.502 76.7006 320.702 76.4006C320.902 76.1006 321.102 75.6006 321.102 75.1006C321.202 74.6006 321.202 73.9006 321.202 73.2006V47.9006C321.202 47.3006 321.202 46.8006 321.102 46.3006C321.002 45.8006 320.902 45.4006 320.702 45.1006C320.502 44.8006 320.202 44.5006 319.902 44.3006C319.602 44.1006 319.102 44.0006 318.502 44.0006V43.6006C319.602 43.7006 320.602 43.7006 321.402 43.8006C322.202 43.8006 322.902 43.9006 323.602 43.9006C324.302 43.9006 325.102 43.9006 325.902 43.8006C326.702 43.8006 327.702 43.7006 328.902 43.6006V44.0006C328.302 44.0006 327.802 44.1006 327.502 44.3006C327.202 44.5006 326.902 44.7006 326.702 45.0006C326.502 45.3006 326.402 45.7006 326.302 46.2006C326.202 46.7006 326.202 47.2006 326.202 47.7006V73.1006C326.202 73.8006 326.202 74.4006 326.302 75.0006C326.402 75.5006 326.602 75.9006 326.802 76.3006C327.002 76.6006 327.302 76.9006 327.802 77.1006C328.202 77.3006 328.802 77.4006 329.402 77.4006V77.8006C328.502 77.7006 327.502 77.7006 326.602 77.7006C325.902 77.6006 325.002 77.5006 324.102 77.5006Z" fill="#E4A97C"/>
<path d="M332.5 77.3C333.2 77.3 333.8 77.2 334.2 77.1C334.6 76.9 334.9 76.7 335.1 76.4C335.3 76.1 335.5 75.6 335.5 75.1C335.6 74.6 335.6 73.9 335.6 73.2V47C335.3 46.5 335 46 334.8 45.6C334.6 45.2 334.4 44.8 334.2 44.5C334 44.2 333.8 43.8 333.7 43.6H339.6C339.8 44 340.3 44.8 340.9 46C341.6 47.2 342.4 48.7 343.4 50.4C344.4 52.1 345.4 54 346.6 56.1C347.7 58.2 348.9 60.2 350 62.3C351.1 64.4 352.3 66.4 353.3 68.3C354.4 70.2 355.3 71.9 356.1 73.3V48C356.1 47.3 356.1 46.7 356 46.1C355.9 45.6 355.8 45.1 355.6 44.8C355.4 44.5 355.1 44.2 354.7 44.1C354.3 43.9 353.7 43.9 353 43.9V43.5C353.8 43.5 354.5 43.5 355 43.6C355.5 43.6 356.1 43.6 356.5 43.6C357 43.6 357.4 43.6 357.9 43.6C358.4 43.6 359 43.6 359.7 43.5V43.9C359 43.9 358.4 44 358 44.1C357.6 44.2 357.3 44.5 357.1 44.8C356.9 45.1 356.7 45.6 356.7 46.1C356.6 46.6 356.6 47.3 356.6 48.1V74.1C356.9 74.6 357.2 75.1 357.4 75.5C357.6 75.9 357.8 76.3 358 76.6C358.2 76.9 358.4 77.3 358.5 77.6H352.6C352.3 77 351.8 76.1 351 74.7C350.3 73.4 349.4 71.8 348.4 70.1C347.4 68.4 346.4 66.5 345.3 64.4C344.2 62.4 343.1 60.3 341.9 58.3C340.8 56.3 339.7 54.3 338.7 52.5C337.7 50.6 336.8 49 336 47.6V73.1C336 73.9 336 74.5 336.1 75C336.2 75.5 336.3 75.9 336.5 76.2C336.7 76.5 337 76.7 337.4 76.9C337.8 77 338.4 77.1 339.1 77.1V77.5C338.4 77.5 337.8 77.5 337.3 77.4C336.8 77.4 336.3 77.4 335.9 77.4C335.4 77.4 334.9 77.4 334.4 77.4C333.9 77.4 333.2 77.4 332.4 77.5V77.3H332.5Z" fill="#E4A97C"/>
<path d="M374.502 50.5C374.302 51 374.002 51.7 373.602 52.7C373.202 53.7 372.802 54.8 372.302 56C371.802 57.2 371.302 58.6 370.702 59.9C370.102 61.3 369.602 62.7 369.102 64C370.102 64 371.102 64.2 371.902 64.7C372.802 65.3 373.502 66.1 374.102 67.1C374.702 68.1 375.202 69.2 375.702 70.3C376.002 71.1 376.402 71.9 376.802 72.7C377.202 73.5 377.602 74.2 378.202 74.9C378.702 75.5 379.402 76.1 380.102 76.5C380.802 76.9 381.702 77.1 382.602 77.1C383.202 77.1 383.602 77 383.902 76.7C384.202 76.4 384.402 76.1 384.502 75.7C384.602 75.3 384.602 74.8 384.502 74.3C384.402 73.8 384.302 73.2 384.002 72.7C384.002 72.6 384.002 72.6 384.002 72.6V72.5V72.4C382.802 69.5 381.702 67.1 380.902 65.1C380.002 63.1 379.302 61.4 378.702 60C378.102 58.6 377.602 57.5 377.202 56.6C376.802 55.7 376.502 54.9 376.202 54.2C375.902 53.5 375.602 52.9 375.402 52.3C375.102 51.9 374.802 51.3 374.502 50.5ZM361.702 77.4C362.502 77 363.102 76.4 363.602 75.7C364.102 75 364.602 74.2 365.002 73.2C367.102 68 369.002 63.3 370.602 59.1C371.302 57.3 372.002 55.5 372.702 53.8C373.402 52 374.002 50.5 374.602 49C375.202 47.6 375.602 46.4 376.002 45.4C376.402 44.4 376.602 43.8 376.702 43.6V43.5H377.002L389.802 73.2C390.402 74.6 391.002 75.6 391.502 76.2C392.002 76.8 392.502 77.1 393.102 77.3V77.6C392.102 77.5 391.102 77.5 390.302 77.4C389.502 77.4 388.702 77.4 387.902 77.4C387.102 77.4 386.302 77.4 385.502 77.4C384.602 77.4 383.702 77.5 382.502 77.6C381.202 77.6 380.102 77.3 379.202 76.6C378.302 75.9 377.602 75.1 377.002 74.1C376.402 73.1 375.802 72 375.302 70.9C374.802 69.7 374.302 68.7 373.702 67.7C373.102 66.7 372.502 66 371.702 65.4C370.902 64.8 369.902 64.5 368.802 64.6C368.502 65.5 368.102 66.4 367.802 67.2C367.502 68 367.202 68.8 366.902 69.5C366.602 70.2 366.402 70.9 366.102 71.4C365.902 72 365.702 72.4 365.602 72.8C365.202 73.8 365.202 74.7 365.402 75.5C365.702 76.3 366.402 76.9 367.502 77.3V77.6C366.902 77.5 366.402 77.5 366.002 77.5C365.602 77.5 365.202 77.5 364.802 77.5C364.302 77.5 363.802 77.5 363.302 77.5C362.802 77.5 362.302 77.6 361.602 77.6V77.4H361.702Z" fill="#E4A97C"/>
<path d="M395 77.3C395.7 77.3 396.3 77.2 396.7 77.1C397.1 76.9 397.4 76.7 397.6 76.4C397.8 76.1 398 75.6 398 75.1C398.1 74.6 398.1 73.9 398.1 73.2V47C397.8 46.5 397.5 46 397.3 45.6C397.1 45.2 396.9 44.8 396.7 44.5C396.5 44.2 396.3 43.8 396.2 43.6H402.1C402.3 44 402.8 44.8 403.4 46C404.1 47.2 404.9 48.7 405.9 50.4C406.9 52.1 407.9 54 409.1 56.1C410.2 58.2 411.4 60.2 412.5 62.3C413.6 64.4 414.8 66.4 415.8 68.3C416.9 70.2 417.8 71.9 418.6 73.3V48C418.6 47.3 418.6 46.7 418.5 46.1C418.4 45.6 418.3 45.1 418.1 44.8C417.9 44.5 417.6 44.2 417.2 44.1C416.8 43.9 416.2 43.9 415.5 43.9V43.5C416.3 43.5 417 43.5 417.5 43.6C418 43.6 418.6 43.6 419 43.6C419.5 43.6 419.9 43.6 420.4 43.6C420.9 43.6 421.5 43.6 422.2 43.5V43.9C421.5 43.9 420.9 44 420.5 44.1C420.1 44.2 419.8 44.5 419.6 44.8C419.4 45.1 419.2 45.6 419.2 46.1C419.1 46.6 419.1 47.3 419.1 48.1V74.1C419.4 74.6 419.7 75.1 419.9 75.5C420.1 75.9 420.3 76.3 420.5 76.6C420.7 76.9 420.9 77.3 421 77.6H415.1C414.8 77 414.3 76.1 413.5 74.7C412.8 73.4 411.9 71.8 410.9 70.1C409.9 68.4 408.9 66.5 407.8 64.4C406.7 62.4 405.6 60.3 404.4 58.3C403.3 56.3 402.2 54.3 401.2 52.5C400.2 50.6 399.3 49 398.5 47.6V73.1C398.5 73.9 398.5 74.5 398.6 75C398.7 75.5 398.8 75.9 399 76.2C399.2 76.5 399.5 76.7 399.9 76.9C400.3 77 400.9 77.1 401.6 77.1V77.5C400.9 77.5 400.3 77.5 399.8 77.4C399.3 77.4 398.8 77.4 398.4 77.4C397.9 77.4 397.4 77.4 396.9 77.4C396.4 77.4 395.7 77.4 394.9 77.5V77.3H395Z" fill="#E4A97C"/>
<path d="M443 60.5004C443 58.0004 443.4 55.7004 444.2 53.6004C445 51.5004 446.2 49.7004 447.7 48.2004C449.2 46.7004 451 45.5004 453.1 44.7004C455.2 43.9004 457.5 43.4004 460.1 43.4004C462.3 43.4004 464.4 43.7004 466.4 44.3004C468.4 44.9004 470.4 45.8004 472.2 47.1004L470.6 53.1004L470.2 53.0004C469.9 51.7004 469.4 50.5004 468.9 49.3004C468.4 48.2004 467.7 47.2004 466.9 46.4004C466.1 45.6004 465.2 44.9004 464.2 44.5004C463.2 44.0004 462 43.8004 460.6 43.8004C458.4 43.8004 456.6 44.3004 455 45.2004C453.4 46.2004 452.2 47.4004 451.2 49.0004C450.2 50.6004 449.5 52.4004 449 54.5004C448.5 56.6004 448.3 58.7004 448.3 60.9004C448.3 63.0004 448.6 65.0004 449.1 67.0004C449.6 69.0004 450.4 70.7004 451.5 72.3004C452.5 73.8004 453.8 75.1004 455.4 76.0004C456.9 76.9004 458.7 77.4004 460.8 77.4004C462.2 77.4004 463.5 77.1004 464.7 76.6004C465.9 76.0004 466.9 75.3004 467.7 74.3004C468.6 73.4004 469.3 72.2004 469.8 71.0004C470.4 69.7004 470.8 68.4004 471 67.0004L471.4 66.9004L473.2 73.3004C471.3 74.9004 469.3 76.0004 467.1 76.7004C465 77.4004 462.7 77.8004 460.1 77.8004C457.7 77.8004 455.5 77.4004 453.4 76.6004C451.3 75.8004 449.5 74.6004 448 73.1004C446.4 71.6004 445.2 69.8004 444.4 67.7004C443.4 65.5004 443 63.1004 443 60.5004Z" fill="#E4A97C"/>
<path d="M479.1 48.6002C479.1 47.8002 479.1 47.2002 479 46.6002C478.9 46.0002 478.8 45.6002 478.6 45.2002C478.4 44.8002 478.1 44.5002 477.6 44.4002C477.2 44.2002 476.6 44.1002 476 44.1002V43.7002C477.3 43.8002 478.4 43.8002 479.2 43.8002C480.1 43.8002 480.9 43.9002 481.6 43.9002C482.4 43.9002 483.2 43.9002 484.1 43.8002C485 43.8002 486.1 43.7002 487.4 43.7002V44.1002C486.7 44.1002 486.2 44.2002 485.8 44.4002C485.4 44.6002 485.1 44.8002 484.8 45.2002C484.6 45.5002 484.4 46.0002 484.3 46.5002C484.2 47.0002 484.2 47.6002 484.2 48.4002V77.5002H489.5C491.4 77.5002 493 77.4002 494.4 77.2002C495.8 77.0002 497.1 76.6002 498.2 76.0002C499.3 75.4002 500.3 74.7002 501.3 73.8002C502.2 72.9002 503.2 71.7002 504.2 70.4002H504.3C504.4 70.4002 504.4 70.4002 504.4 70.5002C504.4 70.5002 504.4 70.5002 504.5 70.6002L503.1 77.9002V78.0002H476.4V77.6002C477 77.6002 477.5 77.5002 477.8 77.3002C478.1 77.1002 478.4 76.9002 478.6 76.5002C478.8 76.2002 478.9 75.8002 479 75.3002C479.1 74.8002 479.1 74.3002 479.1 73.7002V48.6002Z" fill="#E4A97C"/>
<path d="M512.301 77.5006C511.401 77.5006 510.601 77.5006 509.901 77.5006C509.201 77.5006 508.501 77.5006 508.001 77.6006C507.401 77.6006 506.801 77.7006 506.301 77.7006V77.3006C507.001 77.3006 507.601 77.2006 508.001 77.1006C508.401 76.9006 508.701 76.7006 508.901 76.4006C509.101 76.1006 509.301 75.6006 509.301 75.1006C509.401 74.6006 509.401 73.9006 509.401 73.2006V47.9006C509.401 47.3006 509.401 46.8006 509.301 46.3006C509.201 45.8006 509.101 45.4006 508.901 45.1006C508.701 44.8006 508.401 44.5006 508.101 44.3006C507.801 44.1006 507.301 44.0006 506.701 44.0006V43.6006C507.801 43.7006 508.801 43.7006 509.601 43.8006C510.401 43.8006 511.101 43.9006 511.801 43.9006C512.501 43.9006 513.301 43.9006 514.101 43.8006C514.901 43.8006 515.901 43.7006 517.101 43.6006V44.0006C516.501 44.0006 516.001 44.1006 515.701 44.3006C515.401 44.5006 515.101 44.7006 514.901 45.0006C514.701 45.3006 514.601 45.7006 514.501 46.2006C514.401 46.7006 514.401 47.2006 514.401 47.7006V73.1006C514.401 73.8006 514.401 74.4006 514.501 75.0006C514.601 75.5006 514.801 75.9006 515.001 76.3006C515.201 76.6006 515.501 76.9006 516.001 77.1006C516.401 77.3006 517.001 77.4006 517.601 77.4006V77.8006C516.701 77.7006 515.701 77.7006 514.801 77.7006C514.101 77.6006 513.201 77.5006 512.301 77.5006Z" fill="#E4A97C"/>
<path d="M520.702 77.3C521.402 77.3 522.002 77.2 522.402 77.1C522.802 76.9 523.102 76.7 523.302 76.4C523.502 76.1 523.702 75.6 523.702 75.1C523.802 74.6 523.802 73.9 523.802 73.2V47C523.502 46.5 523.202 46 523.002 45.6C522.802 45.2 522.602 44.8 522.402 44.5C522.202 44.2 522.002 43.8 521.902 43.6H527.802C528.002 44 528.502 44.8 529.102 46C529.802 47.2 530.602 48.7 531.602 50.4C532.602 52.1 533.602 54 534.802 56.1C535.902 58.2 537.102 60.2 538.202 62.3C539.302 64.4 540.502 66.4 541.502 68.3C542.602 70.2 543.502 71.9 544.302 73.3V48C544.302 47.3 544.302 46.7 544.202 46.1C544.102 45.6 544.002 45.1 543.802 44.8C543.602 44.5 543.302 44.2 542.902 44.1C542.502 43.9 541.902 43.9 541.202 43.9V43.5C542.002 43.5 542.702 43.5 543.202 43.6C543.702 43.6 544.302 43.6 544.702 43.6C545.202 43.6 545.602 43.6 546.102 43.6C546.602 43.6 547.202 43.6 547.902 43.5V43.9C547.202 43.9 546.602 44 546.202 44.1C545.802 44.2 545.502 44.5 545.302 44.8C545.102 45.1 544.902 45.6 544.902 46.1C544.802 46.6 544.802 47.3 544.802 48.1V74.1C545.102 74.6 545.402 75.1 545.602 75.5C545.802 75.9 546.002 76.3 546.202 76.6C546.402 76.9 546.602 77.3 546.702 77.6H540.802C540.502 77 540.002 76.1 539.202 74.7C538.502 73.4 537.602 71.8 536.602 70.1C535.602 68.4 534.602 66.5 533.502 64.4C532.402 62.4 531.302 60.3 530.102 58.3C529.002 56.3 527.902 54.3 526.902 52.5C525.902 50.6 525.002 49 524.202 47.6V73.1C524.202 73.9 524.202 74.5 524.302 75C524.402 75.5 524.502 75.9 524.702 76.2C524.902 76.5 525.202 76.7 525.602 76.9C526.002 77 526.602 77.1 527.302 77.1V77.5C526.602 77.5 526.002 77.5 525.502 77.4C525.002 77.4 524.502 77.4 524.102 77.4C523.602 77.4 523.102 77.4 522.602 77.4C522.102 77.4 521.402 77.4 520.602 77.5V77.3H520.702Z" fill="#E4A97C"/>
<path d="M556.9 77.5006C556 77.5006 555.2 77.5006 554.5 77.5006C553.8 77.5006 553.1 77.5006 552.6 77.6006C552 77.6006 551.4 77.7006 550.9 77.7006V77.3006C551.6 77.3006 552.2 77.2006 552.6 77.1006C553 76.9006 553.3 76.7006 553.5 76.4006C553.7 76.1006 553.9 75.6006 553.9 75.1006C554 74.6006 554 73.9006 554 73.2006V47.9006C554 47.3006 554 46.8006 553.9 46.3006C553.8 45.8006 553.7 45.4006 553.5 45.1006C553.3 44.8006 553 44.5006 552.7 44.3006C552.4 44.1006 551.9 44.0006 551.3 44.0006V43.6006C552.4 43.7006 553.4 43.7006 554.2 43.8006C555 43.8006 555.7 43.9006 556.4 43.9006C557.1 43.9006 557.9 43.9006 558.7 43.8006C559.5 43.8006 560.5 43.7006 561.7 43.6006V44.0006C561.1 44.0006 560.6 44.1006 560.3 44.3006C560 44.5006 559.7 44.7006 559.5 45.0006C559.3 45.3006 559.2 45.7006 559.1 46.2006C559 46.7006 559 47.2006 559 47.7006V73.1006C559 73.8006 559 74.4006 559.1 75.0006C559.2 75.5006 559.4 75.9006 559.6 76.3006C559.8 76.6006 560.1 76.9006 560.6 77.1006C561 77.3006 561.6 77.4006 562.2 77.4006V77.8006C561.3 77.7006 560.3 77.7006 559.4 77.7006C558.6 77.6006 557.7 77.5006 556.9 77.5006Z" fill="#E4A97C"/>
<path d="M565.301 60.5004C565.301 58.0004 565.701 55.7004 566.501 53.6004C567.301 51.5004 568.501 49.7004 570.001 48.2004C571.501 46.7004 573.301 45.5004 575.401 44.7004C577.501 43.9004 579.801 43.4004 582.401 43.4004C584.601 43.4004 586.701 43.7004 588.701 44.3004C590.701 44.9004 592.701 45.8004 594.501 47.1004L592.901 53.1004L592.501 53.0004C592.201 51.7004 591.701 50.5004 591.201 49.3004C590.701 48.2004 590.001 47.2004 589.201 46.4004C588.401 45.6004 587.501 44.9004 586.501 44.5004C585.501 44.0004 584.301 43.8004 582.901 43.8004C580.701 43.8004 578.901 44.3004 577.301 45.2004C575.701 46.2004 574.501 47.4004 573.501 49.0004C572.501 50.6004 571.801 52.4004 571.301 54.5004C570.801 56.6004 570.601 58.7004 570.601 60.9004C570.601 63.0004 570.901 65.0004 571.401 67.0004C571.901 69.0004 572.701 70.7004 573.801 72.3004C574.801 73.8004 576.101 75.1004 577.701 76.0004C579.201 76.9004 581.001 77.4004 583.101 77.4004C584.501 77.4004 585.801 77.1004 587.001 76.6004C588.201 76.0004 589.201 75.3004 590.001 74.3004C590.901 73.4004 591.601 72.2004 592.101 71.0004C592.701 69.7004 593.101 68.4004 593.301 67.0004L593.701 66.9004L595.501 73.3004C593.601 74.9004 591.601 76.0004 589.401 76.7004C587.301 77.4004 585.001 77.8004 582.401 77.8004C580.001 77.8004 577.801 77.4004 575.701 76.6004C573.601 75.8004 571.801 74.6004 570.301 73.1004C568.801 71.6004 567.501 69.8004 566.701 67.7004C565.701 65.5004 565.301 63.1004 565.301 60.5004Z" fill="#E4A97C"/>
<path d="M50.6996 140L11.5996 83.8998L25.7996 32.1998L79.6996 5.2998L153.9 58.4998L112.5 138.1L50.6996 140Z" stroke="#E4A97C" stroke-width="1.144" stroke-miterlimit="10"/>
<path d="M79.6996 154.399L11.5996 83.8994" stroke="#E4A97C" stroke-width="1.144" stroke-miterlimit="10"/>
<path d="M25.7992 32.2002L20.1992 124.9L110.999 138.9" stroke="#E4A97C" stroke-width="1.144" stroke-miterlimit="10"/>
<path d="M5.5 58.4998L112.7 5.2998L139.2 124.9L135.7 34.9998" stroke="#E4A97C" stroke-width="1.144" stroke-miterlimit="10"/>
<path d="M46.6992 5.2998L122.499 35.9998" stroke="#E4A97C" stroke-width="1.144" stroke-miterlimit="10"/>
<path d="M50.6992 139.999L139.199 124.899" stroke="#E4A97C" stroke-width="1.144" stroke-miterlimit="10"/>
<path d="M79.7 154.4L20.2 124.9L5.5 58.4998L46.7 5.2998H112.7L153.9 58.4998L139.2 124.9L79.7 154.4Z" stroke="#E4A97C" stroke-width="2.2879" stroke-miterlimit="10"/>
<path d="M102.599 67.9002C105.599 66.8002 108.999 65.9002 112.599 65.3002L113.099 65.2002C113.899 65.1002 114.699 65.0002 115.499 64.8002C115.399 64.9002 115.199 65.0002 115.099 65.2002C112.699 66.9002 109.799 67.5002 106.999 67.8002C105.599 68.0002 104.199 68.0002 102.599 67.9002ZM104.899 76.3002C102.999 76.5002 101.099 76.4002 99.4994 76.2002C96.4994 75.9002 93.6994 75.0002 91.3994 74.2002C92.2994 73.6002 93.2994 72.9002 94.2994 72.2002C94.6994 72.3002 94.9994 72.4002 95.3994 72.5002L95.7994 72.6002C95.9994 72.6002 96.0994 72.7002 96.2994 72.7002C96.3994 72.7002 96.4994 72.7002 96.5994 72.8002L97.3994 72.9002C97.5994 72.9002 97.8994 73.0002 98.0994 73.0002H98.1994C98.5994 73.1002 98.8994 73.1002 99.2994 73.2002C99.7994 73.3002 100.099 73.3002 100.499 73.4002C100.899 73.4002 101.299 73.5002 101.699 73.5002C102.099 73.5002 102.499 73.6002 102.899 73.6002C103.299 73.6002 103.799 73.6002 104.199 73.6002C104.599 73.6002 104.999 73.6002 105.399 73.6002C105.599 73.6002 105.799 73.6002 105.999 73.6002C106.199 73.6002 106.399 73.6002 106.599 73.6002H106.799C107.199 73.6002 107.499 73.5002 107.899 73.5002C108.299 73.4002 108.699 73.4002 109.199 73.3002C109.699 73.2002 110.099 73.1002 110.499 72.9002C110.599 73.4002 110.499 74.0002 110.099 74.5002C108.799 75.9002 106.799 76.1002 104.899 76.3002ZM91.8994 82.8002C90.4994 82.3002 89.0994 81.7002 87.6994 81.2002C87.2994 81.0002 86.7994 80.8002 86.3994 80.7002C86.0994 80.5002 85.6994 80.4002 85.3994 80.2002C84.8994 80.0002 84.4994 79.8002 83.9994 79.6002H83.8994C84.4994 79.2002 85.0994 78.8002 85.8994 78.3002C86.6994 78.5002 87.3994 78.8002 88.1994 79.1002C88.7994 79.3002 89.3994 79.6002 89.9994 79.8002C90.6994 80.1002 91.3994 80.3002 92.0994 80.4002C92.3994 80.5002 92.7994 80.6002 93.0994 80.7002C93.1994 80.7002 93.1994 80.7002 93.2994 80.7002H93.3994L93.7994 80.8002C94.2994 80.9002 94.7994 81.0002 95.3994 81.1002C95.7994 81.2002 96.1994 81.3002 96.6994 81.3002C96.9994 81.4002 97.2994 81.4002 97.6994 81.5002L97.9994 81.6002C98.3994 81.7002 98.7994 81.7002 99.2994 81.8002C99.7994 81.9002 100.199 81.9002 100.599 81.9002C100.799 81.9002 100.899 81.9002 101.099 81.9002C101.099 82.5002 100.599 82.9002 99.4994 83.4002C96.8994 84.1002 94.2994 83.5002 91.8994 82.8002ZM94.6994 85.3002C93.9994 85.5002 93.1994 85.4002 92.4994 85.3002C90.3994 85.0002 88.3994 84.1002 86.7994 83.3002C85.1994 82.5002 83.7994 81.8002 82.3994 81.0002C82.1994 80.9002 81.9994 80.7002 81.6994 80.6002C81.8994 80.5002 82.0994 80.4002 82.2994 80.2002C83.0994 80.5002 83.8994 80.9002 84.6994 81.2002C85.1994 81.4002 85.5994 81.6002 86.0994 81.9002C86.6994 82.1002 87.2994 82.4002 87.8994 82.6002C89.6994 83.3002 91.4994 84.1002 93.3994 84.5002C93.9994 84.7002 94.6994 84.8002 95.2994 84.8002C95.1994 85.1002 94.9994 85.2002 94.6994 85.3002ZM101.399 106.4C101.199 104.8 100.799 103.3 100.099 101.8C99.3994 100.1 98.6994 98.7002 97.7994 97.5002C96.1994 95.3002 94.0994 93.6002 91.9994 92.0002L90.8994 91.2002C89.9994 90.5002 89.0994 89.8002 88.2994 89.1002C86.9994 88.0002 85.8994 86.8002 84.8994 85.8002C84.7994 85.7002 84.7994 85.7002 84.6994 85.6002C85.6994 86.2002 86.7994 86.7002 87.7994 87.0002C88.8994 87.4002 91.1994 87.8002 92.5994 87.1002C92.7994 87.4002 92.9994 87.8002 93.1994 88.2002C93.6994 89.0002 94.2994 89.9002 94.8994 90.6002C95.2994 91.2002 95.6994 91.8002 96.1994 92.4002C97.5994 94.5002 99.2994 97.3002 100.499 100.3C101.299 102.8 101.699 105.4 101.599 108C101.499 107.5 101.399 106.9 101.399 106.4ZM95.9994 100C95.7994 99.6002 95.4994 99.2002 95.2994 98.8002C94.1994 97.0002 93.0994 95.3002 91.8994 93.7002C93.3994 94.9002 94.8994 96.1002 96.0994 97.6002C97.0994 98.9002 97.9994 100.4 98.7994 102.2C99.3994 103.6 99.7994 105.1 99.9994 106.6C100.199 107.7 100.299 108.9 100.399 110C100.399 110.4 100.399 110.8 100.399 111.2C99.9994 109 99.4994 107.1 98.7994 105.4C98.0994 103.5 96.9994 101.7 95.9994 100ZM71.5994 64.6002L71.6994 64.7002C71.8994 64.8002 71.9994 65.0002 72.1994 65.1002C72.4994 65.4002 72.7994 65.7002 73.0994 66.2002C74.2994 68.0002 74.9994 70.3002 74.8994 72.3002C74.7994 73.7002 74.4994 75.1002 74.0994 76.5002C73.8994 77.1002 73.6994 77.8002 73.4994 78.5002C73.2994 77.2002 73.1994 75.9002 72.9994 74.7002L72.8994 73.7002C72.5994 71.2002 72.0994 67.9002 70.6994 65.0002C71.0994 64.9002 71.3994 64.8002 71.5994 64.6002ZM84.7994 74.2002C83.6994 75.2002 82.4994 76.2002 81.4994 77.3002C81.5994 76.8002 81.6994 76.4002 81.8994 75.9002C82.4994 73.8002 82.8994 70.8002 81.4994 68.0002C80.5994 66.2002 79.0994 64.9002 77.7994 64.1002C76.9994 63.5002 76.1994 63.1002 75.3994 62.7002L75.0994 62.5002C74.9994 62.4002 74.7994 62.3002 74.6994 62.2002C74.3994 62.0002 74.0994 61.9002 73.8994 61.7002C74.3994 61.7002 74.7994 61.7002 75.2994 61.6002C75.9994 61.6002 76.6994 61.5002 77.3994 61.5002C80.8994 61.8002 83.0994 65.2002 83.8994 66.6002C84.4994 67.9002 84.9994 69.3002 85.3994 70.7002C85.5994 71.5002 85.8994 72.2002 86.1994 73.0002C85.5994 73.5002 85.1994 73.8002 84.7994 74.2002ZM83.7994 83.3002C84.7994 83.8002 85.8994 84.4002 87.0994 84.9002H87.1994C88.1994 85.3002 89.1994 85.8002 90.2994 86.1002C90.0994 86.1002 89.8994 86.1002 89.6994 86.0002C88.5994 85.8002 87.3994 85.4002 86.2994 84.9002C85.4994 84.5002 84.6994 84.0002 83.7994 83.3002ZM72.6994 63.7002L72.4994 63.6002L72.3994 63.5002C72.4994 63.2002 72.6994 62.9002 72.6994 62.7002C72.8994 62.9002 73.1994 63.0002 73.3994 63.1002C73.4994 63.2002 73.6994 63.2002 73.7994 63.3002C73.9994 63.4002 74.2994 63.6002 74.5994 63.7002C74.6994 63.8002 74.8994 63.8002 74.9994 63.9002C75.2994 64.1002 75.5994 64.2002 75.8994 64.4002C76.6994 64.8002 77.3994 65.4002 78.0994 66.0002C78.8994 66.7002 79.4994 67.4002 79.8994 68.1002C81.0994 70.1002 80.9994 72.6002 80.6994 74.2002C80.4994 75.0002 80.2994 75.9002 80.0994 76.7002L79.8994 77.4002C79.7994 77.7002 79.6994 78.0002 79.6994 78.3002C79.3994 77.8002 78.8994 77.3002 78.2994 77.1002C78.0994 77.0002 77.9994 77.0002 77.7994 76.9002C77.0994 76.8002 76.2994 76.8002 75.4994 77.1002C75.3994 77.1002 75.2994 77.2002 75.1994 77.2002C75.1994 77.1002 75.1994 77.1002 75.1994 77.0002C75.7994 75.0002 76.0994 73.3002 76.0994 71.8002C75.9994 69.1002 74.9994 66.3002 73.3994 64.4002C73.2994 64.3002 72.9994 64.0002 72.6994 63.7002ZM96.2994 67.9002C100.699 65.7002 105.499 64.3002 110.599 63.8002C112.099 63.6002 113.599 63.6002 114.899 63.7002C114.999 63.7002 114.999 63.7002 115.099 63.7002H114.899C114.399 63.8002 113.799 63.9002 113.299 63.9002C111.399 64.2002 109.799 64.5002 108.099 64.9002C102.899 66.1002 98.2994 68.0002 94.4994 70.5002C92.5994 71.7002 90.6994 73.1002 88.7994 74.4002C87.1994 75.5002 85.5994 76.7002 83.8994 77.8002C83.5994 78.0002 83.2994 78.2002 82.9994 78.4002C82.4994 78.7002 82.0994 79.0002 81.5994 79.3002C82.5994 77.9002 83.7994 76.8002 84.8994 75.8002C87.1994 73.7002 89.1994 72.1002 91.1994 70.8002C93.0994 69.5002 94.6994 68.6002 96.2994 67.9002ZM66.2994 58.6002L66.3994 58.7002C67.8994 59.7002 69.3994 60.7002 71.0994 61.3002C71.0994 61.3002 71.1994 61.3002 71.1994 61.4002C71.2994 61.5002 71.3994 61.7002 71.4994 61.8002C71.6994 62.2002 71.1994 63.2002 70.7994 63.5002C70.3994 63.8002 70.2994 63.8002 69.9994 63.5002C69.5994 62.7002 69.0994 62.0002 68.5994 61.4002C67.7994 60.4002 66.9994 59.4002 66.0994 58.5002C66.1994 58.6002 66.1994 58.6002 66.2994 58.6002ZM82.3994 97.1002C79.7994 95.4002 76.1994 92.0002 74.2994 82.7002C74.2994 82.3002 74.3994 81.9002 74.3994 81.5002C74.4994 80.1002 75.1994 78.6002 76.5994 78.5002C78.0994 78.2002 78.4994 78.8002 79.2994 80.4002C79.3994 80.6002 79.4994 80.8002 79.5994 81.0002L79.4994 81.2002L79.6994 81.1002C79.6994 81.1002 79.6994 81.1002 79.6994 81.2002V81.4002L79.7994 81.3002L79.8994 81.4002C80.0994 81.7002 80.2994 82.0002 80.4994 82.3002L80.5994 82.4002C80.6994 82.6002 80.7994 82.7002 80.8994 82.9002C81.7994 84.4002 82.7994 85.8002 84.0994 87.1002C84.8994 88.0002 85.6994 88.8002 86.3994 89.6002C87.3994 90.7002 88.4994 91.9002 89.4994 93.0002C92.4994 96.7002 95.0994 100.7 97.0994 104.9C98.0994 107.3 98.7994 109.8 99.1994 112.4C98.7994 110.9 98.1994 109.5 97.4994 108.1C95.7994 105.2 93.1994 102.8 89.9994 101.1C88.9994 100.6 87.8994 100 86.8994 99.6002C85.3994 98.7002 83.7994 98.0002 82.3994 97.1002ZM106.399 78.6002C106.299 78.7002 106.199 78.8002 106.199 78.9002C106.099 79.0002 105.999 79.1002 105.799 79.2002C105.599 79.3002 105.399 79.5002 105.199 79.6002C104.999 79.7002 104.699 79.8002 104.499 79.9002C104.199 80.0002 103.799 80.1002 103.499 80.2002C103.299 80.3002 103.099 80.3002 102.799 80.3002C102.699 80.3002 102.599 80.3002 102.499 80.3002C102.399 80.3002 102.299 80.3002 102.199 80.3002C101.899 80.3002 101.699 80.4002 101.399 80.4002C101.099 80.4002 100.899 80.4002 100.599 80.4002C100.199 80.4002 99.8994 80.4002 99.5994 80.3002C99.2994 80.3002 98.8994 80.2002 98.5994 80.2002H98.4994C98.1994 80.2002 97.8994 80.1002 97.5994 80.1002L97.2994 80.0002C96.8994 79.9002 96.4994 79.9002 95.9994 79.8002C95.5994 79.7002 95.1994 79.6002 94.7994 79.5002L93.4994 79.2002H93.3994H93.2994C92.9994 79.1002 92.5994 79.0002 92.2994 78.9002C91.6994 78.7002 91.0994 78.6002 90.4994 78.4002C89.8994 78.2002 89.1994 77.9002 88.5994 77.7002C88.1994 77.5002 87.6994 77.3002 87.1994 77.2002C87.8994 76.7002 88.6994 76.2002 89.3994 75.6002L90.1994 75.1002C92.3994 75.9002 94.0994 76.5002 95.7994 76.9002C97.0994 77.2002 98.4994 77.4002 99.6994 77.6002C101.099 77.8002 103.099 78.0002 104.999 77.7002C105.599 77.6002 106.199 77.6002 106.899 77.4002C106.899 77.5002 106.899 77.5002 106.899 77.6002C106.899 77.7002 106.899 77.7002 106.899 77.8002C106.899 77.9002 106.899 77.9002 106.899 78.0002C106.899 78.1002 106.899 78.1002 106.799 78.2002C106.799 78.3002 106.699 78.4002 106.699 78.4002C106.499 78.4002 106.499 78.5002 106.399 78.6002ZM112.599 69.9002C112.499 70.0002 112.399 70.1002 112.299 70.2002C112.199 70.3002 111.999 70.5002 111.799 70.6002C111.499 70.8002 111.199 71.0002 110.899 71.2002C110.699 71.3002 110.399 71.4002 110.099 71.6002C109.899 71.7002 109.799 71.7002 109.599 71.8002C109.399 71.8002 109.299 71.9002 109.099 71.9002C108.499 72.0002 107.899 72.1002 107.399 72.2002C106.999 72.2002 106.599 72.3002 106.299 72.3002C105.499 72.4002 104.799 72.4002 103.899 72.4002C103.499 72.4002 102.999 72.4002 102.599 72.3002C102.199 72.3002 101.799 72.2002 101.399 72.2002C100.999 72.2002 100.599 72.1002 100.299 72.1002C99.8994 72.0002 99.4994 72.0002 98.9994 71.9002L98.3994 71.8002C98.1994 71.8002 97.9994 71.7002 97.7994 71.7002H97.6994C97.2994 71.6002 96.9994 71.6002 96.5994 71.5002C96.3994 71.4002 96.0994 71.4002 95.8994 71.3002C97.0994 70.5002 98.4994 69.8002 99.7994 69.2002C99.8994 69.2002 99.8994 69.2002 99.9994 69.2002C100.199 69.2002 100.399 69.2002 100.599 69.2002L101.399 69.3002C101.999 69.3002 102.699 69.4002 103.299 69.4002C105.899 69.5002 108.499 69.2002 110.999 68.6002C111.699 68.4002 112.399 68.2002 112.999 68.0002C112.999 68.1002 112.999 68.1002 113.099 68.2002C113.099 68.3002 113.099 68.3002 113.099 68.4002C113.099 68.5002 113.099 68.5002 113.099 68.6002C113.099 68.7002 113.099 68.8002 113.099 68.8002C113.099 68.9002 113.099 69.0002 112.999 69.1002C112.999 69.2002 112.899 69.3002 112.899 69.4002C112.799 69.5002 112.799 69.7002 112.699 69.8002C112.699 69.9002 112.599 69.9002 112.599 70.0002C112.699 69.8002 112.599 69.9002 112.599 69.9002ZM117.699 63.1002C117.199 62.4002 115.599 62.2002 113.399 62.2002C113.199 62.2002 113.099 62.2002 112.999 62.2002C107.099 62.4002 101.199 64.0002 95.7994 66.6002C92.9994 68.0002 90.1994 69.8002 87.0994 72.2002C86.9994 72.0002 86.9994 71.9002 86.8994 71.7002L86.5994 70.9002C86.3994 70.4002 86.2994 69.9002 86.0994 69.4002C85.6994 68.1002 85.1994 66.7002 84.4994 65.4002C83.2994 63.5002 81.9994 62.1002 80.4994 61.2002C78.4994 60.0002 76.7994 60.1002 75.0994 60.2002C73.8994 60.3002 72.7994 60.4002 71.6994 60.0002C68.6994 58.9002 66.0994 56.8002 63.5994 54.7002C62.8994 54.1002 62.1994 53.6002 61.5994 53.1002C61.3994 52.9002 61.0994 52.7002 60.8994 52.5002C60.4994 52.2002 60.1994 52.0002 59.8994 51.7002C59.6994 51.5002 59.3994 51.4002 59.0994 51.6002C58.8994 51.7002 58.7994 51.9002 58.6994 52.1002C58.5994 52.4002 58.6994 52.7002 58.8994 52.9002C60.3994 54.6002 61.9994 56.3002 63.5994 57.7002L63.9994 58.1002C65.6994 59.8002 67.3994 61.6002 68.6994 63.6002C68.6994 63.8002 68.7994 63.9002 68.8994 64.0002C69.6994 65.3002 70.0994 66.8002 70.4994 68.2002C71.0994 70.3002 71.3994 72.4002 71.5994 74.5002C71.6994 75.1002 71.7994 75.7002 71.7994 76.3002C72.1994 79.9002 72.7994 84.0002 74.2994 88.0002C75.6994 92.2002 78.1994 95.7002 81.3994 97.8002C82.8994 98.8002 84.4994 99.5002 86.0994 100.3C87.5994 101 89.0994 101.7 90.3994 102.6C92.9994 104.3 94.9994 106.4 96.2994 108.8C96.9994 110.3 97.5994 112.1 98.1994 114.2C98.2994 114.5 98.3994 114.9 98.3994 115.2C98.4994 115.6 98.5994 116 98.6994 116.5C98.6994 116.6 98.6994 116.7 98.7994 116.9C98.7994 117.2 98.8994 117.5 99.0994 117.8L99.1994 117.9C99.2994 118 99.3994 118 99.5994 118L99.9994 119.8V117.9C99.9994 117.9 99.9994 117.9 100.099 117.9C100.399 117.8 100.499 117.4 100.599 117.3C100.999 116.5 101.299 115.6 101.499 114.8L101.699 114.1C101.999 113 102.299 111.9 102.499 110.8C102.799 108.7 102.899 106.6 102.599 104.6C102.299 102.6 101.999 101 101.499 99.6002C100.099 95.9002 97.8994 92.5002 95.8994 89.7002L95.5994 89.3002C94.9994 88.4002 94.3994 87.5002 93.7994 86.6002C93.7994 86.5002 93.6994 86.4002 93.6994 86.4002C94.2994 86.4002 94.8994 86.3002 95.3994 86.1002C95.9994 85.8002 96.3994 85.3002 96.5994 84.8002C97.4994 84.8002 98.3994 84.7002 99.1994 84.4002C100.599 83.9002 101.999 83.0002 101.999 81.5002C102.299 81.5002 102.499 81.4002 102.799 81.4002C103.199 81.3002 103.599 81.2002 104.099 81.1002C104.499 81.0002 104.999 80.8002 105.299 80.6002C105.499 80.5002 105.699 80.4002 105.899 80.3002C106.099 80.2002 106.299 80.0002 106.499 79.9002C106.699 79.8002 106.899 79.6002 106.999 79.4002C107.199 79.2002 107.299 79.0002 107.399 78.9002C107.499 78.7002 107.699 78.4002 107.699 78.2002C107.799 78.0002 107.799 77.7002 107.799 77.5002C107.799 77.3002 107.799 77.1002 107.799 76.9002C109.099 76.5002 109.999 76.0002 110.699 75.2002C111.299 74.5002 111.599 73.5002 111.499 72.6002C111.499 72.4002 111.399 72.3002 111.399 72.1002C111.599 72.0002 111.699 71.9002 111.899 71.8002C112.099 71.7002 112.299 71.6002 112.399 71.4002C112.599 71.3002 112.799 71.1002 112.899 71.0002C112.999 70.9002 113.199 70.7002 113.399 70.5002C113.499 70.3002 113.599 70.1002 113.799 69.9002C113.899 69.7002 113.999 69.5002 114.099 69.2002C114.299 68.7002 114.299 68.2002 114.299 67.7002C114.299 67.5002 114.199 67.3002 114.099 67.0002C114.299 66.9002 114.399 66.8002 114.599 66.7002L114.799 66.6002C115.499 66.2002 116.199 65.7002 116.699 64.9002C116.799 64.7002 116.999 64.4002 117.099 64.1002C117.299 64.0002 117.399 63.8002 117.599 63.7002V63.6002C117.899 63.6002 117.899 63.3002 117.699 63.1002Z" fill="#E4A97C"/>
<path d="M46.7996 45.3994H43.6996C43.6996 45.3994 43.5996 45.3994 43.5996 45.4994V45.5994L45.0996 47.4994C45.0996 47.4994 45.0996 47.4994 45.1996 47.4994C45.1996 47.4994 45.1996 47.4994 45.2996 47.4994L46.8996 45.5994C46.7996 45.4994 46.8996 45.3994 46.7996 45.3994Z" fill="#E4A97C"/>
<path d="M45.1008 47.7998H41.9008C41.9008 47.7998 41.8008 47.7998 41.8008 47.8998V47.9998L46.6008 53.9998H46.7008C46.7008 53.9998 46.8008 53.8998 46.7008 53.8998L45.1008 47.7998Z" fill="#E4A97C"/>
<path d="M50.8 45.3994H47.6C47.6 45.3994 47.5 45.3994 47.5 45.4994V45.5994L49.1 47.4994C49.1 47.4994 49.1 47.4994 49.2 47.4994C49.2 47.4994 49.2 47.4994 49.3 47.4994C49.6 47.0994 50.5 46.0994 50.9 45.5994C50.9 45.4994 50.9 45.3994 50.8 45.3994C50.9 45.3994 50.9 45.3994 50.8 45.3994Z" fill="#E4A97C"/>
<path d="M52.7008 47.7998H49.4008C49.4008 47.7998 49.3008 47.7998 49.3008 47.8998L47.8008 53.9998V54.0998H47.9008L52.7008 47.9998C52.8008 47.9998 52.8008 47.8998 52.7008 47.7998Z" fill="#E4A97C"/>
<path d="M47.1996 45.5L45.5996 47.4V47.5C45.5996 47.5 45.5996 47.6 45.6996 47.6H48.8996C48.8996 47.6 48.9996 47.6 48.9996 47.5V47.4L47.1996 45.5Z" fill="#E4A97C"/>
<path d="M51.1996 45.5L49.5996 47.4V47.5C49.5996 47.5 49.5996 47.6 49.6996 47.6H52.8996C52.8996 47.6 52.9996 47.6 52.9996 47.5V47.4L51.1996 45.5Z" fill="#E4A97C"/>
<path d="M43.1996 45.5L41.5996 47.4V47.5C41.5996 47.5 41.5996 47.6 41.6996 47.6H44.8996C44.8996 47.6 44.9996 47.6 44.9996 47.5V47.4L43.1996 45.5Z" fill="#E4A97C"/>
<path d="M45.5004 47.8994C45.4004 47.9994 45.4004 47.9994 45.4004 47.9994L47.1004 54.4994C47.1004 54.4994 47.1004 54.5994 47.2004 54.5994C47.2004 54.5994 47.3004 54.5994 47.3004 54.4994L48.9004 47.9994V47.8994C48.9004 47.8994 48.9004 47.8994 48.8004 47.8994H45.5004Z" fill="#E4A97C"/>
<path d="M52.2004 64.8994H50.4004C50.4004 64.8994 50.4004 64.8994 50.4004 64.9994L51.3004 66.0994L52.2004 64.8994C52.2004 64.9994 52.2004 64.9994 52.2004 64.8994Z" fill="#E4A97C"/>
<path d="M51.2008 66.3994H49.3008C49.3008 66.3994 49.3008 66.3994 49.3008 66.4994L52.1008 70.0994C52.1008 70.0994 52.1008 70.0994 52.2008 70.0994C52.2008 70.0994 52.2008 70.0994 52.2008 69.9994L51.2008 66.3994Z" fill="#E4A97C"/>
<path d="M54.5992 64.8994H52.6992C52.6992 64.8994 52.6992 64.8994 52.6992 64.9994L53.6992 66.0994C53.8992 65.8994 54.3992 65.2994 54.5992 64.8994C54.5992 64.9994 54.5992 64.9994 54.5992 64.8994Z" fill="#E4A97C"/>
<path d="M55.6992 66.3994H53.6992C53.6992 66.3994 53.6992 66.3994 53.5992 66.3994L52.6992 69.9994V70.0994C52.6992 70.0994 52.6992 70.0994 52.7992 70.0994L55.6992 66.3994C55.7992 66.4994 55.7992 66.4994 55.6992 66.3994Z" fill="#E4A97C"/>
<path d="M52.4004 65L51.4004 66.2C51.4004 66.2 51.4004 66.2 51.4004 66.3H53.3004C53.3004 66.3 53.3004 66.3 53.3004 66.2L52.4004 65Z" fill="#E4A97C"/>
<path d="M54.8008 65L53.8008 66.2C53.8008 66.2 53.8008 66.2 53.8008 66.3H55.7008C55.7008 66.3 55.7008 66.3 55.7008 66.2L54.8008 65Z" fill="#E4A97C"/>
<path d="M50 65L49 66.2C49 66.2 49 66.2 49 66.3H50.9C50.9 66.3 50.9 66.3 50.9 66.2L50 65C50.1 65 50.1 65 50 65Z" fill="#E4A97C"/>
<path d="M51.4004 66.3994C51.4004 66.4994 51.4004 66.4994 51.4004 66.3994L52.4004 70.3994C52.4004 70.3994 52.4004 70.3994 52.5004 70.3994C52.5004 70.3994 52.5004 70.3994 52.6004 70.3994L53.6004 66.4994C53.6004 66.4994 53.6004 66.4994 53.6004 66.3994H51.4004Z" fill="#E4A97C"/>
<path d="M67.4 39.5996H66L66.7 40.4996L67.4 39.5996Z" fill="#E4A97C"/>
<path d="M66.5996 40.7002H65.0996L67.2996 43.5002C67.2996 43.5002 67.2996 43.5002 67.3996 43.5002C67.3996 43.5002 67.3996 43.5002 67.3996 43.4002L66.5996 40.7002Z" fill="#E4A97C"/>
<path d="M69.1992 39.5996H67.6992L68.4992 40.4996C68.6992 40.2996 69.0992 39.7996 69.1992 39.5996C69.2992 39.5996 69.2992 39.5996 69.1992 39.5996Z" fill="#E4A97C"/>
<path d="M70.1004 40.7002H68.6004L67.9004 43.5002C67.9004 43.5002 67.9004 43.5002 67.9004 43.6002C67.9004 43.6002 67.9004 43.6002 68.0004 43.6002L70.1004 40.7002Z" fill="#E4A97C"/>
<path d="M67.6008 39.5996C67.5008 39.5996 67.5008 39.5996 67.6008 39.5996L66.8008 40.4996H68.3008L67.6008 39.5996Z" fill="#E4A97C"/>
<path d="M69.3996 39.5996L68.5996 40.4996H70.0996L69.3996 39.5996Z" fill="#E4A97C"/>
<path d="M65.7004 39.5996L64.9004 40.4996H66.4004L65.7004 39.5996Z" fill="#E4A97C"/>
<path d="M66.8008 40.7002L67.6008 43.8002L68.4008 40.8002H66.8008V40.7002Z" fill="#E4A97C"/>
</svg>
