<svg width="24" height="16" viewBox="0 0 24 16" fill="none" xmlns="http://www.w3.org/2000/svg">
<path d="M13.0718 16C4.87193 16 0.19489 9.99399 0 0L4.10744 -1.79542e-07C4.24236 7.33532 7.2704 10.4424 9.66888 11.0831L9.66887 -4.2264e-07L13.5366 -5.91703e-07L13.5366 6.32627C15.9051 6.05401 18.3932 3.17117 19.2327 -8.40689e-07L23.1004 -1.00975e-06C22.4558 3.90792 19.7575 6.79077 17.8387 7.97594C19.7575 8.9369 22.8307 11.4514 24 16L19.7425 16C18.8281 12.9569 16.5497 10.6026 13.5366 10.2822L13.5366 16L13.0718 16Z" fill="#E2A97E"/>
</svg>
