<svg width="30" height="30" viewBox="0 0 30 30" fill="none" xmlns="http://www.w3.org/2000/svg">
<circle cx="15" cy="15" r="14" stroke="#E2A97E" stroke-width="2"/>
<path fill-rule="evenodd" clip-rule="evenodd" d="M7.704 10.7737C7.5 11.175 7.5 11.7 7.5 12.75V17.25C7.5 18.3 7.5 18.825 7.704 19.2262C7.88392 19.579 8.17088 19.8657 8.52375 20.0452C8.925 20.25 9.45 20.25 10.5 20.25H19.5C20.55 20.25 21.075 20.25 21.4762 20.0452C21.8288 19.8655 22.1155 19.5788 22.2952 19.2262C22.5 18.825 22.5 18.3 22.5 17.25V12.75C22.5 11.7 22.5 11.175 22.2952 10.7737C22.1156 10.4209 21.829 10.1339 21.4762 9.954C21.075 9.75 20.55 9.75 19.5 9.75H10.5C9.45 9.75 8.925 9.75 8.52375 9.954C8.17077 10.1338 7.88379 10.4208 7.704 10.7737ZM9.48525 11.25H20.5147C20.5953 11.2499 20.6737 11.2757 20.7384 11.3236C20.8031 11.3716 20.8507 11.439 20.874 11.5161C20.8974 11.5931 20.8954 11.6757 20.8682 11.7515C20.8411 11.8273 20.7902 11.8923 20.7232 11.937L15.417 15.486C15.2936 15.5685 15.1485 15.6126 15 15.6126C14.8515 15.6126 14.7064 15.5685 14.583 15.486L9.27675 11.937C9.20976 11.8923 9.15892 11.8273 9.13176 11.7515C9.10461 11.6757 9.10257 11.5931 9.12595 11.5161C9.14934 11.439 9.1969 11.3716 9.26161 11.3236C9.32632 11.2757 9.40473 11.2499 9.48525 11.25Z" fill="#E2A97E"/>
</svg>
