<svg width="30" height="30" viewBox="0 0 30 30" fill="none" xmlns="http://www.w3.org/2000/svg">
<circle cx="15" cy="15" r="14" stroke="#E2A97E" stroke-width="2"/>
<path d="M12.0973 9H10.2632C9.56554 9 9 9.56554 9 10.2632C9 16.193 13.807 21 19.7368 21C20.4345 21 21 20.4345 21 19.7368V17.9027C21 17.3575 20.6681 16.8672 20.1619 16.6647L18.4047 15.9619C17.95 15.78 17.4322 15.862 17.056 16.1756L16.6021 16.5538C16.0723 16.9953 15.2933 16.96 14.8057 16.4723L13.5277 15.1943C13.04 14.7067 13.0047 13.9277 13.4462 13.3979L13.8244 12.944C14.138 12.5678 14.22 12.05 14.0381 11.5953L13.3353 9.83815C13.1328 9.33193 12.6425 9 12.0973 9Z" fill="#E2A97E"/>
</svg>
