<svg width="38" height="38" viewBox="0 0 38 38" fill="none" xmlns="http://www.w3.org/2000/svg">
<rect y="7.62939e-06" width="38" height="38" rx="7" fill="#533B39"/>
<path d="M16.4601 13.75H14.8553C14.2448 13.75 13.75 14.2449 13.75 14.8553C13.75 20.0438 17.9562 24.25 23.1447 24.25C23.7552 24.25 24.25 23.7552 24.25 23.1447V21.5399C24.25 21.0628 23.9596 20.6338 23.5166 20.4567L21.9792 19.8417C21.5813 19.6825 21.1282 19.7543 20.799 20.0286L20.4018 20.3596C19.9383 20.7459 19.2566 20.715 18.83 20.2883L17.7117 19.17C17.285 18.7434 17.2541 18.0617 17.6404 17.5982L17.9714 17.201C18.2457 16.8718 18.3175 16.4187 18.1583 16.0209L17.5434 14.4834C17.3662 14.0405 16.9372 13.75 16.4601 13.75Z" fill="#E2A97E"/>
</svg>
