<svg width="40" height="40" viewBox="0 0 40 40" fill="none" xmlns="http://www.w3.org/2000/svg">
<circle cx="20" cy="20" r="20" fill="white"/>
<path d="M36 19.6838C36 19.5239 35.87 19.3914 35.71 19.3839C29.9693 19.1664 26.4755 18.4341 24.0313 15.9897C21.582 13.5403 20.8522 10.0436 20.6348 4.28992C20.6298 4.12996 20.4973 4 20.3348 4H19.6651C19.5051 4 19.3726 4.12996 19.3652 4.28992C19.1477 10.0411 18.4179 13.5403 15.9687 15.9897C13.522 18.4366 10.0306 19.1664 4.2899 19.3839C4.12995 19.3889 4 19.5214 4 19.6838V20.3537C4 20.5136 4.12995 20.6461 4.2899 20.6536C10.0306 20.871 13.5245 21.6034 15.9687 24.0478C18.4129 26.4923 19.1427 29.979 19.3627 35.71C19.3676 35.87 19.5001 36 19.6626 36H20.3348C20.4948 36 20.6273 35.87 20.6348 35.71C20.8547 29.979 21.5845 26.4923 24.0288 24.0478C26.4755 21.6009 29.9668 20.871 35.7075 20.6536C35.8675 20.6486 35.9975 20.5161 35.9975 20.3537V19.6838H36Z" fill="#3B2928"/>
</svg>
