<svg width="44" height="44" viewBox="0 0 44 44" fill="none" xmlns="http://www.w3.org/2000/svg">
<rect width="44" height="44" rx="10" fill="#533B39"/>
<g clip-path="url(#clip0_37_8178)">
<path d="M29.1242 14.9553L15.7291 23.4414L10.1647 21.6891L10.1641 21.6889C10.0092 21.6403 9.90186 21.5899 9.8308 21.5479C9.94513 21.4502 10.1497 21.3233 10.4798 21.1934C10.4803 21.1932 10.4809 21.193 10.4814 21.1928L33.5393 12.2549C33.8945 12.1219 34.0559 12.2158 34.1065 12.2651C34.1674 12.3244 34.327 12.5658 34.2075 13.2031L34.1911 13.2806L30.2683 31.8914C30.1409 32.4536 29.959 32.5809 29.9064 32.605C29.8608 32.6259 29.6764 32.6762 29.2436 32.4407L23.3052 28.0377L22.7941 27.6588L22.337 28.1012L19.6142 30.7358L19.9292 26.2484L30.7824 16.3817C30.7831 16.381 30.7839 16.3803 30.7846 16.3796C30.9544 16.2269 31.1944 15.9535 31.2083 15.57C31.2264 15.0712 30.8728 14.7774 30.5829 14.6735C30.3192 14.579 30.0442 14.5965 29.8225 14.6473C29.5895 14.7006 29.3512 14.8045 29.1242 14.9553ZM30.1821 16.1054C30.1821 16.1055 30.1801 16.1058 30.1763 16.1059C30.1803 16.1053 30.1822 16.1053 30.1821 16.1054ZM29.7921 15.2545C29.7977 15.2474 29.8013 15.2439 29.8017 15.2439C29.8021 15.2439 29.7993 15.2475 29.7921 15.2545ZM9.73697 21.6485C9.73694 21.6484 9.73723 21.6478 9.73796 21.6465C9.73737 21.6478 9.73701 21.6485 9.73697 21.6485Z" stroke="#E2A97E" stroke-width="1.5"/>
</g>
<defs>
<clipPath id="clip0_37_8178">
<rect width="26" height="26" fill="white" transform="translate(9 9)"/>
</clipPath>
</defs>
</svg>
