<svg width="44" height="44" viewBox="0 0 44 44" fill="none" xmlns="http://www.w3.org/2000/svg">
<rect width="44" height="44" rx="10" fill="#533B39"/>
<g clip-path="url(#clip0_2150_651)">
<mask id="mask0_2150_651" style="mask-type:luminance" maskUnits="userSpaceOnUse" x="9" y="9" width="26" height="26">
<path d="M35 9H9V35H35V9Z" fill="white"/>
</mask>
<g mask="url(#mask0_2150_651)">
<path d="M22.003 10H21.997C15.3805 10 10 15.382 10 22C10 24.625 10.846 27.058 12.2845 29.0335L10.789 33.4915L15.4015 32.017C17.299 33.274 19.5625 34 22.003 34C28.6195 34 34 28.6165 34 22C34 15.3835 28.6195 10 22.003 10ZM28.9855 26.9455C28.696 27.763 27.547 28.441 26.6305 28.639C26.0035 28.7725 25.1845 28.879 22.4275 27.736C18.901 26.275 16.63 22.6915 16.453 22.459C16.2835 22.2265 15.028 20.5615 15.028 18.8395C15.028 17.1175 15.9025 16.279 16.255 15.919C16.5445 15.6235 17.023 15.4885 17.482 15.4885C17.6305 15.4885 17.764 15.496 17.884 15.502C18.2365 15.517 18.4135 15.538 18.646 16.0945C18.9355 16.792 19.6405 18.514 19.7245 18.691C19.81 18.868 19.8955 19.108 19.7755 19.3405C19.663 19.5805 19.564 19.687 19.387 19.891C19.21 20.095 19.042 20.251 18.865 20.47C18.703 20.6605 18.52 20.8645 18.724 21.217C18.928 21.562 19.633 22.7125 20.671 23.6365C22.0105 24.829 23.0965 25.21 23.485 25.372C23.7745 25.492 24.1195 25.4635 24.331 25.2385C24.5995 24.949 24.931 24.469 25.2685 23.9965C25.5085 23.6575 25.8115 23.6155 26.1295 23.7355C26.4535 23.848 28.168 24.6955 28.5205 24.871C28.873 25.048 29.1055 25.132 29.191 25.2805C29.275 25.429 29.275 26.1265 28.9855 26.9455Z" stroke="#E2A97E" stroke-width="1.5"/>
</g>
</g>
<defs>
<clipPath id="clip0_2150_651">
<rect width="26" height="26" fill="white" transform="translate(9 9)"/>
</clipPath>
</defs>
</svg>
